
<svg width="720" height="84" xmlns="http://www.w3.org/2000/svg">

<style>
.water0 { fill:none }
.water1 { fill:#4dd2ff }
.water2 { fill:#1aa3ff }
.water3 { fill:#0088ff }
.water4 { fill:#0066cc }
.duck {
  animation: swim 15s ease-in-out infinite;
}

@keyframes swim {
  0% { transform: translate(0px, 0px); }
  10% { transform: translate(80px, -3px); }
  20% { transform: translate(150px, 2px); }
  30% { transform: translate(230px, -4px); }
  40% { transform: translate(310px, 1px); }
  50% { transform: translate(390px, -2px); }
  60% { transform: translate(470px, 3px); }
  70% { transform: translate(540px, -1px); }
  80% { transform: translate(600px, 2px); }
  90% { transform: translate(640px, -3px); }
  100% { transform: translate(680px, 0px); }
}
</style>

<rect class="water0" x="0" y="0" width="10" height="10" rx="2"/><rect class="water0" x="0" y="12" width="10" height="10" rx="2"/><rect class="water0" x="0" y="24" width="10" height="10" rx="2"/><rect class="water0" x="0" y="36" width="10" height="10" rx="2"/><rect class="water0" x="0" y="48" width="10" height="10" rx="2"/><rect class="water0" x="0" y="60" width="10" height="10" rx="2"/><rect class="water0" x="0" y="72" width="10" height="10" rx="2"/><rect class="water0" x="12" y="0" width="10" height="10" rx="2"/><rect class="water1" x="12" y="12" width="10" height="10" rx="2"/><rect class="water1" x="12" y="24" width="10" height="10" rx="2"/><rect class="water1" x="12" y="36" width="10" height="10" rx="2"/><rect class="water1" x="12" y="48" width="10" height="10" rx="2"/><rect class="water1" x="12" y="60" width="10" height="10" rx="2"/><rect class="water0" x="12" y="72" width="10" height="10" rx="2"/><rect class="water1" x="24" y="0" width="10" height="10" rx="2"/><rect class="water1" x="24" y="12" width="10" height="10" rx="2"/><rect class="water2" x="24" y="24" width="10" height="10" rx="2"/><rect class="water1" x="24" y="36" width="10" height="10" rx="2"/><rect class="water1" x="24" y="48" width="10" height="10" rx="2"/><rect class="water1" x="24" y="60" width="10" height="10" rx="2"/><rect class="water1" x="24" y="72" width="10" height="10" rx="2"/><rect class="water1" x="36" y="0" width="10" height="10" rx="2"/><rect class="water1" x="36" y="12" width="10" height="10" rx="2"/><rect class="water1" x="36" y="24" width="10" height="10" rx="2"/><rect class="water0" x="36" y="36" width="10" height="10" rx="2"/><rect class="water0" x="36" y="48" width="10" height="10" rx="2"/><rect class="water0" x="36" y="60" width="10" height="10" rx="2"/><rect class="water0" x="36" y="72" width="10" height="10" rx="2"/><rect class="water1" x="48" y="0" width="10" height="10" rx="2"/><rect class="water1" x="48" y="12" width="10" height="10" rx="2"/><rect class="water1" x="48" y="24" width="10" height="10" rx="2"/><rect class="water1" x="48" y="36" width="10" height="10" rx="2"/><rect class="water1" x="48" y="48" width="10" height="10" rx="2"/><rect class="water2" x="48" y="60" width="10" height="10" rx="2"/><rect class="water0" x="48" y="72" width="10" height="10" rx="2"/><rect class="water0" x="60" y="0" width="10" height="10" rx="2"/><rect class="water0" x="60" y="12" width="10" height="10" rx="2"/><rect class="water0" x="60" y="24" width="10" height="10" rx="2"/><rect class="water1" x="60" y="36" width="10" height="10" rx="2"/><rect class="water1" x="60" y="48" width="10" height="10" rx="2"/><rect class="water1" x="60" y="60" width="10" height="10" rx="2"/><rect class="water0" x="60" y="72" width="10" height="10" rx="2"/><rect class="water0" x="72" y="0" width="10" height="10" rx="2"/><rect class="water0" x="72" y="12" width="10" height="10" rx="2"/><rect class="water1" x="72" y="24" width="10" height="10" rx="2"/><rect class="water2" x="72" y="36" width="10" height="10" rx="2"/><rect class="water2" x="72" y="48" width="10" height="10" rx="2"/><rect class="water1" x="72" y="60" width="10" height="10" rx="2"/><rect class="water2" x="72" y="72" width="10" height="10" rx="2"/><rect class="water1" x="84" y="0" width="10" height="10" rx="2"/><rect class="water1" x="84" y="12" width="10" height="10" rx="2"/><rect class="water1" x="84" y="24" width="10" height="10" rx="2"/><rect class="water1" x="84" y="36" width="10" height="10" rx="2"/><rect class="water1" x="84" y="48" width="10" height="10" rx="2"/><rect class="water1" x="84" y="60" width="10" height="10" rx="2"/><rect class="water1" x="84" y="72" width="10" height="10" rx="2"/><rect class="water0" x="96" y="0" width="10" height="10" rx="2"/><rect class="water1" x="96" y="12" width="10" height="10" rx="2"/><rect class="water0" x="96" y="24" width="10" height="10" rx="2"/><rect class="water1" x="96" y="36" width="10" height="10" rx="2"/><rect class="water1" x="96" y="48" width="10" height="10" rx="2"/><rect class="water1" x="96" y="60" width="10" height="10" rx="2"/><rect class="water1" x="96" y="72" width="10" height="10" rx="2"/><rect class="water0" x="108" y="0" width="10" height="10" rx="2"/><rect class="water2" x="108" y="12" width="10" height="10" rx="2"/><rect class="water1" x="108" y="24" width="10" height="10" rx="2"/><rect class="water2" x="108" y="36" width="10" height="10" rx="2"/><rect class="water1" x="108" y="48" width="10" height="10" rx="2"/><rect class="water1" x="108" y="60" width="10" height="10" rx="2"/><rect class="water0" x="108" y="72" width="10" height="10" rx="2"/><rect class="water1" x="120" y="0" width="10" height="10" rx="2"/><rect class="water1" x="120" y="12" width="10" height="10" rx="2"/><rect class="water1" x="120" y="24" width="10" height="10" rx="2"/><rect class="water1" x="120" y="36" width="10" height="10" rx="2"/><rect class="water1" x="120" y="48" width="10" height="10" rx="2"/><rect class="water1" x="120" y="60" width="10" height="10" rx="2"/><rect class="water0" x="120" y="72" width="10" height="10" rx="2"/><rect class="water1" x="132" y="0" width="10" height="10" rx="2"/><rect class="water1" x="132" y="12" width="10" height="10" rx="2"/><rect class="water1" x="132" y="24" width="10" height="10" rx="2"/><rect class="water1" x="132" y="36" width="10" height="10" rx="2"/><rect class="water1" x="132" y="48" width="10" height="10" rx="2"/><rect class="water1" x="132" y="60" width="10" height="10" rx="2"/><rect class="water0" x="132" y="72" width="10" height="10" rx="2"/><rect class="water0" x="144" y="0" width="10" height="10" rx="2"/><rect class="water1" x="144" y="12" width="10" height="10" rx="2"/><rect class="water1" x="144" y="24" width="10" height="10" rx="2"/><rect class="water1" x="144" y="36" width="10" height="10" rx="2"/><rect class="water1" x="144" y="48" width="10" height="10" rx="2"/><rect class="water1" x="144" y="60" width="10" height="10" rx="2"/><rect class="water0" x="144" y="72" width="10" height="10" rx="2"/><rect class="water0" x="156" y="0" width="10" height="10" rx="2"/><rect class="water1" x="156" y="12" width="10" height="10" rx="2"/><rect class="water1" x="156" y="24" width="10" height="10" rx="2"/><rect class="water1" x="156" y="36" width="10" height="10" rx="2"/><rect class="water1" x="156" y="48" width="10" height="10" rx="2"/><rect class="water2" x="156" y="60" width="10" height="10" rx="2"/><rect class="water0" x="156" y="72" width="10" height="10" rx="2"/><rect class="water2" x="168" y="0" width="10" height="10" rx="2"/><rect class="water2" x="168" y="12" width="10" height="10" rx="2"/><rect class="water2" x="168" y="24" width="10" height="10" rx="2"/><rect class="water1" x="168" y="36" width="10" height="10" rx="2"/><rect class="water1" x="168" y="48" width="10" height="10" rx="2"/><rect class="water1" x="168" y="60" width="10" height="10" rx="2"/><rect class="water0" x="168" y="72" width="10" height="10" rx="2"/><rect class="water1" x="180" y="0" width="10" height="10" rx="2"/><rect class="water1" x="180" y="12" width="10" height="10" rx="2"/><rect class="water2" x="180" y="24" width="10" height="10" rx="2"/><rect class="water1" x="180" y="36" width="10" height="10" rx="2"/><rect class="water2" x="180" y="48" width="10" height="10" rx="2"/><rect class="water0" x="180" y="60" width="10" height="10" rx="2"/><rect class="water0" x="180" y="72" width="10" height="10" rx="2"/><rect class="water0" x="192" y="0" width="10" height="10" rx="2"/><rect class="water1" x="192" y="12" width="10" height="10" rx="2"/><rect class="water1" x="192" y="24" width="10" height="10" rx="2"/><rect class="water1" x="192" y="36" width="10" height="10" rx="2"/><rect class="water1" x="192" y="48" width="10" height="10" rx="2"/><rect class="water1" x="192" y="60" width="10" height="10" rx="2"/><rect class="water0" x="192" y="72" width="10" height="10" rx="2"/><rect class="water0" x="204" y="0" width="10" height="10" rx="2"/><rect class="water0" x="204" y="12" width="10" height="10" rx="2"/><rect class="water1" x="204" y="24" width="10" height="10" rx="2"/><rect class="water2" x="204" y="36" width="10" height="10" rx="2"/><rect class="water1" x="204" y="48" width="10" height="10" rx="2"/><rect class="water2" x="204" y="60" width="10" height="10" rx="2"/><rect class="water0" x="204" y="72" width="10" height="10" rx="2"/><rect class="water0" x="216" y="0" width="10" height="10" rx="2"/><rect class="water1" x="216" y="12" width="10" height="10" rx="2"/><rect class="water2" x="216" y="24" width="10" height="10" rx="2"/><rect class="water1" x="216" y="36" width="10" height="10" rx="2"/><rect class="water1" x="216" y="48" width="10" height="10" rx="2"/><rect class="water1" x="216" y="60" width="10" height="10" rx="2"/><rect class="water0" x="216" y="72" width="10" height="10" rx="2"/><rect class="water0" x="228" y="0" width="10" height="10" rx="2"/><rect class="water1" x="228" y="12" width="10" height="10" rx="2"/><rect class="water1" x="228" y="24" width="10" height="10" rx="2"/><rect class="water1" x="228" y="36" width="10" height="10" rx="2"/><rect class="water1" x="228" y="48" width="10" height="10" rx="2"/><rect class="water0" x="228" y="60" width="10" height="10" rx="2"/><rect class="water0" x="228" y="72" width="10" height="10" rx="2"/><rect class="water0" x="240" y="0" width="10" height="10" rx="2"/><rect class="water0" x="240" y="12" width="10" height="10" rx="2"/><rect class="water1" x="240" y="24" width="10" height="10" rx="2"/><rect class="water1" x="240" y="36" width="10" height="10" rx="2"/><rect class="water1" x="240" y="48" width="10" height="10" rx="2"/><rect class="water1" x="240" y="60" width="10" height="10" rx="2"/><rect class="water0" x="240" y="72" width="10" height="10" rx="2"/><rect class="water0" x="252" y="0" width="10" height="10" rx="2"/><rect class="water1" x="252" y="12" width="10" height="10" rx="2"/><rect class="water1" x="252" y="24" width="10" height="10" rx="2"/><rect class="water0" x="252" y="36" width="10" height="10" rx="2"/><rect class="water0" x="252" y="48" width="10" height="10" rx="2"/><rect class="water0" x="252" y="60" width="10" height="10" rx="2"/><rect class="water0" x="252" y="72" width="10" height="10" rx="2"/><rect class="water0" x="264" y="0" width="10" height="10" rx="2"/><rect class="water0" x="264" y="12" width="10" height="10" rx="2"/><rect class="water0" x="264" y="24" width="10" height="10" rx="2"/><rect class="water0" x="264" y="36" width="10" height="10" rx="2"/><rect class="water0" x="264" y="48" width="10" height="10" rx="2"/><rect class="water0" x="264" y="60" width="10" height="10" rx="2"/><rect class="water0" x="264" y="72" width="10" height="10" rx="2"/><rect class="water0" x="276" y="0" width="10" height="10" rx="2"/><rect class="water0" x="276" y="12" width="10" height="10" rx="2"/><rect class="water0" x="276" y="24" width="10" height="10" rx="2"/><rect class="water0" x="276" y="36" width="10" height="10" rx="2"/><rect class="water0" x="276" y="48" width="10" height="10" rx="2"/><rect class="water0" x="276" y="60" width="10" height="10" rx="2"/><rect class="water0" x="276" y="72" width="10" height="10" rx="2"/><rect class="water0" x="288" y="0" width="10" height="10" rx="2"/><rect class="water0" x="288" y="12" width="10" height="10" rx="2"/><rect class="water0" x="288" y="24" width="10" height="10" rx="2"/><rect class="water0" x="288" y="36" width="10" height="10" rx="2"/><rect class="water0" x="288" y="48" width="10" height="10" rx="2"/><rect class="water0" x="288" y="60" width="10" height="10" rx="2"/><rect class="water0" x="288" y="72" width="10" height="10" rx="2"/><rect class="water0" x="300" y="0" width="10" height="10" rx="2"/><rect class="water0" x="300" y="12" width="10" height="10" rx="2"/><rect class="water0" x="300" y="24" width="10" height="10" rx="2"/><rect class="water0" x="300" y="36" width="10" height="10" rx="2"/><rect class="water0" x="300" y="48" width="10" height="10" rx="2"/><rect class="water0" x="300" y="60" width="10" height="10" rx="2"/><rect class="water0" x="300" y="72" width="10" height="10" rx="2"/><rect class="water0" x="312" y="0" width="10" height="10" rx="2"/><rect class="water0" x="312" y="12" width="10" height="10" rx="2"/><rect class="water0" x="312" y="24" width="10" height="10" rx="2"/><rect class="water1" x="312" y="36" width="10" height="10" rx="2"/><rect class="water0" x="312" y="48" width="10" height="10" rx="2"/><rect class="water0" x="312" y="60" width="10" height="10" rx="2"/><rect class="water0" x="312" y="72" width="10" height="10" rx="2"/><rect class="water0" x="324" y="0" width="10" height="10" rx="2"/><rect class="water0" x="324" y="12" width="10" height="10" rx="2"/><rect class="water0" x="324" y="24" width="10" height="10" rx="2"/><rect class="water0" x="324" y="36" width="10" height="10" rx="2"/><rect class="water0" x="324" y="48" width="10" height="10" rx="2"/><rect class="water0" x="324" y="60" width="10" height="10" rx="2"/><rect class="water0" x="324" y="72" width="10" height="10" rx="2"/><rect class="water0" x="336" y="0" width="10" height="10" rx="2"/><rect class="water0" x="336" y="12" width="10" height="10" rx="2"/><rect class="water0" x="336" y="24" width="10" height="10" rx="2"/><rect class="water0" x="336" y="36" width="10" height="10" rx="2"/><rect class="water0" x="336" y="48" width="10" height="10" rx="2"/><rect class="water0" x="336" y="60" width="10" height="10" rx="2"/><rect class="water0" x="336" y="72" width="10" height="10" rx="2"/><rect class="water0" x="348" y="0" width="10" height="10" rx="2"/><rect class="water0" x="348" y="12" width="10" height="10" rx="2"/><rect class="water0" x="348" y="24" width="10" height="10" rx="2"/><rect class="water0" x="348" y="36" width="10" height="10" rx="2"/><rect class="water0" x="348" y="48" width="10" height="10" rx="2"/><rect class="water0" x="348" y="60" width="10" height="10" rx="2"/><rect class="water0" x="348" y="72" width="10" height="10" rx="2"/><rect class="water0" x="360" y="0" width="10" height="10" rx="2"/><rect class="water0" x="360" y="12" width="10" height="10" rx="2"/><rect class="water0" x="360" y="24" width="10" height="10" rx="2"/><rect class="water0" x="360" y="36" width="10" height="10" rx="2"/><rect class="water0" x="360" y="48" width="10" height="10" rx="2"/><rect class="water0" x="360" y="60" width="10" height="10" rx="2"/><rect class="water0" x="360" y="72" width="10" height="10" rx="2"/><rect class="water0" x="372" y="0" width="10" height="10" rx="2"/><rect class="water0" x="372" y="12" width="10" height="10" rx="2"/><rect class="water0" x="372" y="24" width="10" height="10" rx="2"/><rect class="water0" x="372" y="36" width="10" height="10" rx="2"/><rect class="water0" x="372" y="48" width="10" height="10" rx="2"/><rect class="water0" x="372" y="60" width="10" height="10" rx="2"/><rect class="water0" x="372" y="72" width="10" height="10" rx="2"/><rect class="water0" x="384" y="0" width="10" height="10" rx="2"/><rect class="water0" x="384" y="12" width="10" height="10" rx="2"/><rect class="water0" x="384" y="24" width="10" height="10" rx="2"/><rect class="water0" x="384" y="36" width="10" height="10" rx="2"/><rect class="water0" x="384" y="48" width="10" height="10" rx="2"/><rect class="water0" x="384" y="60" width="10" height="10" rx="2"/><rect class="water0" x="384" y="72" width="10" height="10" rx="2"/><rect class="water0" x="396" y="0" width="10" height="10" rx="2"/><rect class="water0" x="396" y="12" width="10" height="10" rx="2"/><rect class="water0" x="396" y="24" width="10" height="10" rx="2"/><rect class="water0" x="396" y="36" width="10" height="10" rx="2"/><rect class="water0" x="396" y="48" width="10" height="10" rx="2"/><rect class="water0" x="396" y="60" width="10" height="10" rx="2"/><rect class="water0" x="396" y="72" width="10" height="10" rx="2"/><rect class="water0" x="408" y="0" width="10" height="10" rx="2"/><rect class="water0" x="408" y="12" width="10" height="10" rx="2"/><rect class="water0" x="408" y="24" width="10" height="10" rx="2"/><rect class="water1" x="408" y="36" width="10" height="10" rx="2"/><rect class="water1" x="408" y="48" width="10" height="10" rx="2"/><rect class="water1" x="408" y="60" width="10" height="10" rx="2"/><rect class="water0" x="408" y="72" width="10" height="10" rx="2"/><rect class="water0" x="420" y="0" width="10" height="10" rx="2"/><rect class="water0" x="420" y="12" width="10" height="10" rx="2"/><rect class="water1" x="420" y="24" width="10" height="10" rx="2"/><rect class="water1" x="420" y="36" width="10" height="10" rx="2"/><rect class="water1" x="420" y="48" width="10" height="10" rx="2"/><rect class="water1" x="420" y="60" width="10" height="10" rx="2"/><rect class="water0" x="420" y="72" width="10" height="10" rx="2"/><rect class="water0" x="432" y="0" width="10" height="10" rx="2"/><rect class="water1" x="432" y="12" width="10" height="10" rx="2"/><rect class="water2" x="432" y="24" width="10" height="10" rx="2"/><rect class="water2" x="432" y="36" width="10" height="10" rx="2"/><rect class="water2" x="432" y="48" width="10" height="10" rx="2"/><rect class="water2" x="432" y="60" width="10" height="10" rx="2"/><rect class="water0" x="432" y="72" width="10" height="10" rx="2"/><rect class="water0" x="444" y="0" width="10" height="10" rx="2"/><rect class="water2" x="444" y="12" width="10" height="10" rx="2"/><rect class="water1" x="444" y="24" width="10" height="10" rx="2"/><rect class="water1" x="444" y="36" width="10" height="10" rx="2"/><rect class="water1" x="444" y="48" width="10" height="10" rx="2"/><rect class="water1" x="444" y="60" width="10" height="10" rx="2"/><rect class="water0" x="444" y="72" width="10" height="10" rx="2"/><rect class="water0" x="456" y="0" width="10" height="10" rx="2"/><rect class="water1" x="456" y="12" width="10" height="10" rx="2"/><rect class="water1" x="456" y="24" width="10" height="10" rx="2"/><rect class="water1" x="456" y="36" width="10" height="10" rx="2"/><rect class="water1" x="456" y="48" width="10" height="10" rx="2"/><rect class="water1" x="456" y="60" width="10" height="10" rx="2"/><rect class="water0" x="456" y="72" width="10" height="10" rx="2"/><rect class="water0" x="468" y="0" width="10" height="10" rx="2"/><rect class="water1" x="468" y="12" width="10" height="10" rx="2"/><rect class="water1" x="468" y="24" width="10" height="10" rx="2"/><rect class="water1" x="468" y="36" width="10" height="10" rx="2"/><rect class="water1" x="468" y="48" width="10" height="10" rx="2"/><rect class="water1" x="468" y="60" width="10" height="10" rx="2"/><rect class="water0" x="468" y="72" width="10" height="10" rx="2"/><rect class="water0" x="480" y="0" width="10" height="10" rx="2"/><rect class="water0" x="480" y="12" width="10" height="10" rx="2"/><rect class="water0" x="480" y="24" width="10" height="10" rx="2"/><rect class="water0" x="480" y="36" width="10" height="10" rx="2"/><rect class="water0" x="480" y="48" width="10" height="10" rx="2"/><rect class="water0" x="480" y="60" width="10" height="10" rx="2"/><rect class="water0" x="480" y="72" width="10" height="10" rx="2"/><rect class="water0" x="492" y="0" width="10" height="10" rx="2"/><rect class="water1" x="492" y="12" width="10" height="10" rx="2"/><rect class="water2" x="492" y="24" width="10" height="10" rx="2"/><rect class="water1" x="492" y="36" width="10" height="10" rx="2"/><rect class="water2" x="492" y="48" width="10" height="10" rx="2"/><rect class="water1" x="492" y="60" width="10" height="10" rx="2"/><rect class="water0" x="492" y="72" width="10" height="10" rx="2"/><rect class="water0" x="504" y="0" width="10" height="10" rx="2"/><rect class="water0" x="504" y="12" width="10" height="10" rx="2"/><rect class="water1" x="504" y="24" width="10" height="10" rx="2"/><rect class="water1" x="504" y="36" width="10" height="10" rx="2"/><rect class="water2" x="504" y="48" width="10" height="10" rx="2"/><rect class="water1" x="504" y="60" width="10" height="10" rx="2"/><rect class="water0" x="504" y="72" width="10" height="10" rx="2"/><rect class="water0" x="516" y="0" width="10" height="10" rx="2"/><rect class="water2" x="516" y="12" width="10" height="10" rx="2"/><rect class="water1" x="516" y="24" width="10" height="10" rx="2"/><rect class="water1" x="516" y="36" width="10" height="10" rx="2"/><rect class="water2" x="516" y="48" width="10" height="10" rx="2"/><rect class="water1" x="516" y="60" width="10" height="10" rx="2"/><rect class="water0" x="516" y="72" width="10" height="10" rx="2"/><rect class="water0" x="528" y="0" width="10" height="10" rx="2"/><rect class="water1" x="528" y="12" width="10" height="10" rx="2"/><rect class="water1" x="528" y="24" width="10" height="10" rx="2"/><rect class="water1" x="528" y="36" width="10" height="10" rx="2"/><rect class="water1" x="528" y="48" width="10" height="10" rx="2"/><rect class="water1" x="528" y="60" width="10" height="10" rx="2"/><rect class="water0" x="528" y="72" width="10" height="10" rx="2"/><rect class="water0" x="540" y="0" width="10" height="10" rx="2"/><rect class="water0" x="540" y="12" width="10" height="10" rx="2"/><rect class="water0" x="540" y="24" width="10" height="10" rx="2"/><rect class="water0" x="540" y="36" width="10" height="10" rx="2"/><rect class="water0" x="540" y="48" width="10" height="10" rx="2"/><rect class="water1" x="540" y="60" width="10" height="10" rx="2"/><rect class="water0" x="540" y="72" width="10" height="10" rx="2"/><rect class="water1" x="552" y="0" width="10" height="10" rx="2"/><rect class="water1" x="552" y="12" width="10" height="10" rx="2"/><rect class="water0" x="552" y="24" width="10" height="10" rx="2"/><rect class="water0" x="552" y="36" width="10" height="10" rx="2"/><rect class="water0" x="552" y="48" width="10" height="10" rx="2"/><rect class="water0" x="552" y="60" width="10" height="10" rx="2"/><rect class="water0" x="552" y="72" width="10" height="10" rx="2"/><rect class="water0" x="564" y="0" width="10" height="10" rx="2"/><rect class="water4" x="564" y="12" width="10" height="10" rx="2"/><rect class="water0" x="564" y="24" width="10" height="10" rx="2"/><rect class="water0" x="564" y="36" width="10" height="10" rx="2"/><rect class="water4" x="564" y="48" width="10" height="10" rx="2"/><rect class="water4" x="564" y="60" width="10" height="10" rx="2"/><rect class="water1" x="564" y="72" width="10" height="10" rx="2"/><rect class="water0" x="576" y="0" width="10" height="10" rx="2"/><rect class="water1" x="576" y="12" width="10" height="10" rx="2"/><rect class="water3" x="576" y="24" width="10" height="10" rx="2"/><rect class="water4" x="576" y="36" width="10" height="10" rx="2"/><rect class="water2" x="576" y="48" width="10" height="10" rx="2"/><rect class="water3" x="576" y="60" width="10" height="10" rx="2"/><rect class="water1" x="576" y="72" width="10" height="10" rx="2"/><rect class="water0" x="588" y="0" width="10" height="10" rx="2"/><rect class="water0" x="588" y="12" width="10" height="10" rx="2"/><rect class="water1" x="588" y="24" width="10" height="10" rx="2"/><rect class="water1" x="588" y="36" width="10" height="10" rx="2"/><rect class="water0" x="588" y="48" width="10" height="10" rx="2"/><rect class="water3" x="588" y="60" width="10" height="10" rx="2"/><rect class="water1" x="588" y="72" width="10" height="10" rx="2"/>

<g class="duck">
  <!-- ドット絵風ラバーダック（右向き） -->
  <!-- くちばし -->
  <rect x="28" y="16" width="4" height="4" fill="#ff9500"/>
  <rect x="28" y="20" width="4" height="4" fill="#ff9500"/>

  <!-- 頭 -->
  <rect x="16" y="12" width="4" height="4" fill="#ffdd00"/>
  <rect x="20" y="12" width="4" height="4" fill="#ffdd00"/>
  <rect x="24" y="12" width="4" height="4" fill="#ffdd00"/>
  <rect x="16" y="16" width="4" height="4" fill="#ffdd00"/>
  <rect x="20" y="16" width="4" height="4" fill="#ffdd00"/>
  <rect x="24" y="16" width="4" height="4" fill="#ffdd00"/>
  <rect x="16" y="20" width="4" height="4" fill="#ffdd00"/>
  <rect x="20" y="20" width="4" height="4" fill="#ffdd00"/>
  <rect x="24" y="20" width="4" height="4" fill="#ffdd00"/>

  <!-- 目 -->
  <rect x="24" y="14" width="2" height="2" fill="#000000"/>

  <!-- 体 -->
  <rect x="0" y="24" width="4" height="4" fill="#ffdd00"/>
  <rect x="4" y="24" width="4" height="4" fill="#ffdd00"/>
  <rect x="8" y="24" width="4" height="4" fill="#ffdd00"/>
  <rect x="12" y="24" width="4" height="4" fill="#ffdd00"/>
  <rect x="16" y="24" width="4" height="4" fill="#ffdd00"/>
  <rect x="20" y="24" width="4" height="4" fill="#ffdd00"/>
  <rect x="24" y="24" width="4" height="4" fill="#ffdd00"/>

  <rect x="0" y="28" width="4" height="4" fill="#ffdd00"/>
  <rect x="4" y="28" width="4" height="4" fill="#ffdd00"/>
  <rect x="8" y="28" width="4" height="4" fill="#ffdd00"/>
  <rect x="12" y="28" width="4" height="4" fill="#ffdd00"/>
  <rect x="16" y="28" width="4" height="4" fill="#ffdd00"/>
  <rect x="20" y="28" width="4" height="4" fill="#ffdd00"/>
  <rect x="24" y="28" width="4" height="4" fill="#ffdd00"/>

  <rect x="4" y="32" width="4" height="4" fill="#ffdd00"/>
  <rect x="8" y="32" width="4" height="4" fill="#ffdd00"/>
  <rect x="12" y="32" width="4" height="4" fill="#ffdd00"/>
  <rect x="16" y="32" width="4" height="4" fill="#ffdd00"/>
  <rect x="20" y="32" width="4" height="4" fill="#ffdd00"/>

  <!-- 影 -->
  <rect x="20" y="28" width="4" height="4" fill="#ffcc00" opacity="0.5"/>
  <rect x="24" y="28" width="4" height="4" fill="#ffcc00" opacity="0.5"/>
  <rect x="16" y="32" width="4" height="4" fill="#ffcc00" opacity="0.5"/>
  <rect x="20" y="32" width="4" height="4" fill="#ffcc00" opacity="0.5"/>
</g>

</svg>
