
<svg width="648" height="84" xmlns="http://www.w3.org/2000/svg">

<style>
.water0 { fill:none }
.water1 { fill:#4dd2ff }
.water2 { fill:#1aa3ff }
.water3 { fill:#0088ff }
.water4 { fill:#0066cc }
.duck {
  animation: swim 15s ease-in-out infinite;
}

@keyframes swim {
  0% { transform: translate(0px, 0px); }
  10% { transform: translate(80px, -3px); }
  20% { transform: translate(150px, 2px); }
  30% { transform: translate(230px, -4px); }
  40% { transform: translate(310px, 1px); }
  50% { transform: translate(390px, -2px); }
  60% { transform: translate(470px, 3px); }
  70% { transform: translate(540px, -1px); }
  80% { transform: translate(600px, 2px); }
  90% { transform: translate(640px, -3px); }
  100% { transform: translate(680px, 0px); }
}
</style>

<path class="water0" d="M 2.00 0.80 L 8.75 0.56 Q 10.75 0.56 10.75 2.56 L 10.69 7.60 Q 10.69 9.60 8.69 9.60 L 2.63 10.21 Q 0.63 10.21 0.63 8.21 L 0.00 2.80 Q 0.00 0.80 2.00 0.80 Z"/><path class="water0" d="M 2.63 12.21 L 8.69 11.60 Q 10.69 11.60 10.69 13.60 L 10.11 19.23 Q 10.11 21.23 8.11 21.23 L 2.78 21.31 Q 0.78 21.31 0.78 19.31 L 0.63 14.21 Q 0.63 12.21 2.63 12.21 Z"/><path class="water0" d="M 2.78 23.31 L 8.11 23.23 Q 10.11 23.23 10.11 25.23 L 9.45 31.99 Q 9.45 33.99 7.45 33.99 L 2.34 33.42 Q 0.34 33.42 0.34 31.42 L 0.78 25.31 Q 0.78 23.31 2.78 23.31 Z"/><path class="water0" d="M 2.34 35.42 L 7.45 35.99 Q 9.45 35.99 9.45 37.99 L 9.20 44.77 Q 9.20 46.77 7.20 46.77 L 1.65 46.37 Q -0.35 46.37 -0.35 44.37 L 0.34 37.42 Q 0.34 35.42 2.34 35.42 Z"/><path class="water0" d="M 1.65 48.37 L 7.20 48.77 Q 9.20 48.77 9.20 50.77 L 9.56 56.42 Q 9.56 58.42 7.56 58.42 L 1.22 58.78 Q -0.78 58.78 -0.78 56.78 L -0.35 50.37 Q -0.35 48.37 1.65 48.37 Z"/><path class="water0" d="M 1.22 60.78 L 7.56 60.42 Q 9.56 60.42 9.56 62.42 L 10.25 67.46 Q 10.25 69.46 8.25 69.46 L 1.38 70.04 Q -0.62 70.04 -0.62 68.04 L -0.78 62.78 Q -0.78 60.78 1.22 60.78 Z"/><path class="water0" d="M 1.38 72.04 L 8.25 71.46 Q 10.25 71.46 10.25 73.46 L 10.75 79.29 Q 10.75 81.29 8.75 81.29 L 2.01 81.24 Q 0.01 81.24 0.01 79.24 L -0.62 74.04 Q -0.62 72.04 1.38 72.04 Z"/><path class="water0" d="M 14.75 0.56 L 20.54 -0.02 Q 22.54 -0.02 22.54 1.98 L 21.87 7.22 Q 21.87 9.22 19.87 9.22 L 14.69 9.60 Q 12.69 9.60 12.69 7.60 L 12.75 2.56 Q 12.75 0.56 14.75 0.56 Z"/><path class="water0" d="M 14.69 11.60 L 19.87 11.22 Q 21.87 11.22 21.87 13.22 L 21.30 19.61 Q 21.30 21.61 19.30 21.61 L 14.11 21.23 Q 12.11 21.23 12.11 19.23 L 12.69 13.60 Q 12.69 11.60 14.69 11.60 Z"/><path class="water1" d="M 14.11 23.23 L 19.30 23.61 Q 21.30 23.61 21.30 25.61 L 21.26 32.57 Q 21.26 34.57 19.26 34.57 L 13.45 33.99 Q 11.45 33.99 11.45 31.99 L 12.11 25.23 Q 12.11 23.23 14.11 23.23 Z"/><path class="water2" d="M 13.45 35.99 L 19.26 36.57 Q 21.26 36.57 21.26 38.57 L 21.78 44.70 Q 21.78 46.70 19.78 46.70 L 13.20 46.77 Q 11.20 46.77 11.20 44.77 L 11.45 37.99 Q 11.45 35.99 13.45 35.99 Z"/><path class="water2" d="M 13.20 48.77 L 19.78 48.70 Q 21.78 48.70 21.78 50.70 L 22.46 55.81 Q 22.46 57.81 20.46 57.81 L 13.56 58.42 Q 11.56 58.42 11.56 56.42 L 11.20 50.77 Q 11.20 48.77 13.20 48.77 Z"/><path class="water1" d="M 13.56 60.42 L 20.46 59.81 Q 22.46 59.81 22.46 61.81 L 22.80 67.20 Q 22.80 69.20 20.80 69.20 L 14.25 69.46 Q 12.25 69.46 12.25 67.46 L 11.56 62.42 Q 11.56 60.42 13.56 60.42 Z"/><path class="water2" d="M 14.25 71.46 L 20.80 71.20 Q 22.80 71.20 22.80 73.20 L 22.53 79.77 Q 22.53 81.77 20.53 81.77 L 14.75 81.29 Q 12.75 81.29 12.75 79.29 L 12.25 73.46 Q 12.25 71.46 14.25 71.46 Z"/><path class="water1" d="M 26.54 -0.02 L 31.65 -0.59 Q 33.65 -0.59 33.65 1.41 L 33.22 7.32 Q 33.22 9.32 31.22 9.32 L 25.87 9.22 Q 23.87 9.22 23.87 7.22 L 24.54 1.98 Q 24.54 -0.02 26.54 -0.02 Z"/><path class="water1" d="M 25.87 11.22 L 31.22 11.32 Q 33.22 11.32 33.22 13.32 L 33.38 20.23 Q 33.38 22.23 31.38 22.23 L 25.30 21.61 Q 23.30 21.61 23.30 19.61 L 23.87 13.22 Q 23.87 11.22 25.87 11.22 Z"/><path class="water1" d="M 25.30 23.61 L 31.38 24.23 Q 33.38 24.23 33.38 26.23 L 34.01 32.80 Q 34.01 34.80 32.01 34.80 L 25.26 34.57 Q 23.26 34.57 23.26 32.57 L 23.30 25.61 Q 23.30 23.61 25.30 23.61 Z"/><path class="water1" d="M 25.26 36.57 L 32.01 36.80 Q 34.01 36.80 34.01 38.80 L 34.63 44.20 Q 34.63 46.20 32.63 46.20 L 25.78 46.70 Q 23.78 46.70 23.78 44.70 L 23.26 38.57 Q 23.26 36.57 25.26 36.57 Z"/><path class="water1" d="M 25.78 48.70 L 32.63 48.20 Q 34.63 48.20 34.63 50.20 L 34.78 55.31 Q 34.78 57.31 32.78 57.31 L 26.46 57.81 Q 24.46 57.81 24.46 55.81 L 23.78 50.70 Q 23.78 48.70 25.78 48.70 Z"/><path class="water1" d="M 26.46 59.81 L 32.78 59.31 Q 34.78 59.31 34.78 61.31 L 34.33 67.43 Q 34.33 69.43 32.33 69.43 L 26.80 69.20 Q 24.80 69.20 24.80 67.20 L 24.46 61.81 Q 24.46 59.81 26.46 59.81 Z"/><path class="water1" d="M 26.80 71.20 L 32.33 71.43 Q 34.33 71.43 34.33 73.43 L 33.63 80.39 Q 33.63 82.39 31.63 82.39 L 26.53 81.77 Q 24.53 81.77 24.53 79.77 L 24.80 73.20 Q 24.80 71.20 26.80 71.20 Z"/><path class="water0" d="M 37.65 -0.59 L 43.20 -0.80 Q 45.20 -0.80 45.20 1.20 L 45.56 7.83 Q 45.56 9.83 43.56 9.83 L 37.22 9.32 Q 35.22 9.32 35.22 7.32 L 35.65 1.41 Q 35.65 -0.59 37.65 -0.59 Z"/><path class="water1" d="M 37.22 11.32 L 43.56 11.83 Q 45.56 11.83 45.56 13.83 L 46.25 20.71 Q 46.25 22.71 44.25 22.71 L 37.38 22.23 Q 35.38 22.23 35.38 20.23 L 35.22 13.32 Q 35.22 11.32 37.22 11.32 Z"/><path class="water0" d="M 37.38 24.23 L 44.25 24.71 Q 46.25 24.71 46.25 26.71 L 46.75 32.55 Q 46.75 34.55 44.75 34.55 L 38.01 34.80 Q 36.01 34.80 36.01 32.80 L 35.38 26.23 Q 35.38 24.23 37.38 24.23 Z"/><path class="water1" d="M 38.01 36.80 L 44.75 36.55 Q 46.75 36.55 46.75 38.55 L 46.68 43.58 Q 46.68 45.58 44.68 45.58 L 38.63 46.20 Q 36.63 46.20 36.63 44.20 L 36.01 38.80 Q 36.01 36.80 38.01 36.80 Z"/><path class="water1" d="M 38.63 48.20 L 44.68 47.58 Q 46.68 47.58 46.68 49.58 L 46.10 55.23 Q 46.10 57.23 44.10 57.23 L 38.78 57.31 Q 36.78 57.31 36.78 55.31 L 36.63 50.20 Q 36.63 48.20 38.63 48.20 Z"/><path class="water1" d="M 38.78 59.31 L 44.10 59.23 Q 46.10 59.23 46.10 61.23 L 45.44 68.00 Q 45.44 70.00 43.44 70.00 L 38.33 69.43 Q 36.33 69.43 36.33 67.43 L 36.78 61.31 Q 36.78 59.31 38.78 59.31 Z"/><path class="water1" d="M 38.33 71.43 L 43.44 72.00 Q 45.44 72.00 45.44 74.00 L 45.20 80.77 Q 45.20 82.77 43.20 82.77 L 37.63 82.39 Q 35.63 82.39 35.63 80.39 L 36.33 73.43 Q 36.33 71.43 38.33 71.43 Z"/><path class="water0" d="M 49.20 -0.80 L 55.78 -0.52 Q 57.78 -0.52 57.78 1.48 L 58.46 8.44 Q 58.46 10.44 56.46 10.44 L 49.56 9.83 Q 47.56 9.83 47.56 7.83 L 47.20 1.20 Q 47.20 -0.80 49.20 -0.80 Z"/><path class="water2" d="M 49.56 11.83 L 56.46 12.44 Q 58.46 12.44 58.46 14.44 L 58.80 20.76 Q 58.80 22.76 56.80 22.76 L 50.25 22.71 Q 48.25 22.71 48.25 20.71 L 47.56 13.83 Q 47.56 11.83 49.56 11.83 Z"/><path class="water1" d="M 50.25 24.71 L 56.80 24.76 Q 58.80 24.76 58.80 26.76 L 58.53 31.96 Q 58.53 33.96 56.53 33.96 L 50.75 34.55 Q 48.75 34.55 48.75 32.55 L 48.25 26.71 Q 48.25 24.71 50.25 24.71 Z"/><path class="water2" d="M 50.75 36.55 L 56.53 35.96 Q 58.53 35.96 58.53 37.96 L 57.86 43.22 Q 57.86 45.22 55.86 45.22 L 50.68 45.58 Q 48.68 45.58 48.68 43.58 L 48.75 38.55 Q 48.75 36.55 50.75 36.55 Z"/><path class="water1" d="M 50.68 47.58 L 55.86 47.22 Q 57.86 47.22 57.86 49.22 L 57.30 55.62 Q 57.30 57.62 55.30 57.62 L 50.10 57.23 Q 48.10 57.23 48.10 55.23 L 48.68 49.58 Q 48.68 47.58 50.68 47.58 Z"/><path class="water1" d="M 50.10 59.23 L 55.30 59.62 Q 57.30 59.62 57.30 61.62 L 57.26 68.58 Q 57.26 70.58 55.26 70.58 L 49.44 70.00 Q 47.44 70.00 47.44 68.00 L 48.10 61.23 Q 48.10 59.23 50.10 59.23 Z"/><path class="water0" d="M 49.44 72.00 L 55.26 72.58 Q 57.26 72.58 57.26 74.58 L 57.79 80.69 Q 57.79 82.69 55.79 82.69 L 49.20 82.77 Q 47.20 82.77 47.20 80.77 L 47.44 74.00 Q 47.44 72.00 49.44 72.00 Z"/><path class="water1" d="M 61.78 -0.52 L 68.63 0.07 Q 70.63 0.07 70.63 2.07 L 70.78 8.79 Q 70.78 10.79 68.78 10.79 L 62.46 10.44 Q 60.46 10.44 60.46 8.44 L 59.78 1.48 Q 59.78 -0.52 61.78 -0.52 Z"/><path class="water1" d="M 62.46 12.44 L 68.78 12.79 Q 70.78 12.79 70.78 14.79 L 70.33 20.35 Q 70.33 22.35 68.33 22.35 L 62.80 22.76 Q 60.80 22.76 60.80 20.76 L 60.46 14.44 Q 60.46 12.44 62.46 12.44 Z"/><path class="water1" d="M 62.80 24.76 L 68.33 24.35 Q 70.33 24.35 70.33 26.35 L 69.63 31.40 Q 69.63 33.40 67.63 33.40 L 62.53 33.96 Q 60.53 33.96 60.53 31.96 L 60.80 26.76 Q 60.80 24.76 62.80 24.76 Z"/><path class="water1" d="M 62.53 35.96 L 67.63 35.40 Q 69.63 35.40 69.63 37.40 L 69.22 43.33 Q 69.22 45.33 67.22 45.33 L 61.86 45.22 Q 59.86 45.22 59.86 43.22 L 60.53 37.96 Q 60.53 35.96 62.53 35.96 Z"/><path class="water1" d="M 61.86 47.22 L 67.22 47.33 Q 69.22 47.33 69.22 49.33 L 69.39 56.24 Q 69.39 58.24 67.39 58.24 L 61.30 57.62 Q 59.30 57.62 59.30 55.62 L 59.86 49.22 Q 59.86 47.22 61.86 47.22 Z"/><path class="water1" d="M 61.30 59.62 L 67.39 60.24 Q 69.39 60.24 69.39 62.24 L 70.03 68.80 Q 70.03 70.80 68.03 70.80 L 61.26 70.58 Q 59.26 70.58 59.26 68.58 L 59.30 61.62 Q 59.30 59.62 61.30 59.62 Z"/><path class="water0" d="M 61.26 72.58 L 68.03 72.80 Q 70.03 72.80 70.03 74.80 L 70.64 80.19 Q 70.64 82.19 68.64 82.19 L 61.79 82.69 Q 59.79 82.69 59.79 80.69 L 59.26 74.58 Q 59.26 72.58 61.26 72.58 Z"/><path class="water1" d="M 74.63 0.07 L 80.68 0.62 Q 82.68 0.62 82.68 2.62 L 82.10 8.65 Q 82.10 10.65 80.10 10.65 L 74.78 10.79 Q 72.78 10.79 72.78 8.79 L 72.63 2.07 Q 72.63 0.07 74.63 0.07 Z"/><path class="water1" d="M 74.78 12.79 L 80.10 12.65 Q 82.10 12.65 82.10 14.65 L 81.44 19.73 Q 81.44 21.73 79.44 21.73 L 74.33 22.35 Q 72.33 22.35 72.33 20.35 L 72.78 14.79 Q 72.78 12.79 74.78 12.79 Z"/><path class="water1" d="M 74.33 24.35 L 79.44 23.73 Q 81.44 23.73 81.44 25.73 L 81.20 31.20 Q 81.20 33.20 79.20 33.20 L 73.63 33.40 Q 71.63 33.40 71.63 31.40 L 72.33 26.35 Q 72.33 24.35 74.33 24.35 Z"/><path class="water1" d="M 73.63 35.40 L 79.20 35.20 Q 81.20 35.20 81.20 37.20 L 81.57 43.84 Q 81.57 45.84 79.57 45.84 L 73.22 45.33 Q 71.22 45.33 71.22 43.33 L 71.63 37.40 Q 71.63 35.40 73.63 35.40 Z"/><path class="water1" d="M 73.22 47.33 L 79.57 47.84 Q 81.57 47.84 81.57 49.84 L 82.26 56.71 Q 82.26 58.71 80.26 58.71 L 73.39 58.24 Q 71.39 58.24 71.39 56.24 L 71.22 49.33 Q 71.22 47.33 73.22 47.33 Z"/><path class="water1" d="M 73.39 60.24 L 80.26 60.71 Q 82.26 60.71 82.26 62.71 L 82.75 68.54 Q 82.75 70.54 80.75 70.54 L 74.03 70.80 Q 72.03 70.80 72.03 68.80 L 71.39 62.24 Q 71.39 60.24 73.39 60.24 Z"/><path class="water0" d="M 74.03 72.80 L 80.75 72.54 Q 82.75 72.54 82.75 74.54 L 82.68 79.57 Q 82.68 81.57 80.68 81.57 L 74.64 82.19 Q 72.64 82.19 72.64 80.19 L 72.03 74.80 Q 72.03 72.80 74.03 72.80 Z"/><path class="water0" d="M 86.68 0.62 L 91.86 0.79 Q 93.86 0.79 93.86 2.79 L 93.30 8.12 Q 93.30 10.12 91.30 10.12 L 86.10 10.65 Q 84.10 10.65 84.10 8.65 L 84.68 2.62 Q 84.68 0.62 86.68 0.62 Z"/><path class="water1" d="M 86.10 12.65 L 91.30 12.12 Q 93.30 12.12 93.30 14.12 L 93.26 19.27 Q 93.26 21.27 91.26 21.27 L 85.44 21.73 Q 83.44 21.73 83.44 19.73 L 84.10 14.65 Q 84.10 12.65 86.10 12.65 Z"/><path class="water1" d="M 85.44 23.73 L 91.26 23.27 Q 93.26 23.27 93.26 25.27 L 93.79 31.49 Q 93.79 33.49 91.79 33.49 L 85.20 33.20 Q 83.20 33.20 83.20 31.20 L 83.44 25.73 Q 83.44 23.73 85.44 23.73 Z"/><path class="water1" d="M 85.20 35.20 L 91.79 35.49 Q 93.79 35.49 93.79 37.49 L 94.47 44.45 Q 94.47 46.45 92.47 46.45 L 85.57 45.84 Q 83.57 45.84 83.57 43.84 L 83.20 37.20 Q 83.20 35.20 85.20 35.20 Z"/><path class="water1" d="M 85.57 47.84 L 92.47 48.45 Q 94.47 48.45 94.47 50.45 L 94.80 56.76 Q 94.80 58.76 92.80 58.76 L 86.26 58.71 Q 84.26 58.71 84.26 56.71 L 83.57 49.84 Q 83.57 47.84 85.57 47.84 Z"/><path class="water1" d="M 86.26 60.71 L 92.80 60.76 Q 94.80 60.76 94.80 62.76 L 94.52 67.95 Q 94.52 69.95 92.52 69.95 L 86.75 70.54 Q 84.75 70.54 84.75 68.54 L 84.26 62.71 Q 84.26 60.71 86.26 60.71 Z"/><path class="water0" d="M 86.75 72.54 L 92.52 71.95 Q 94.52 71.95 94.52 73.95 L 93.85 79.22 Q 93.85 81.22 91.85 81.22 L 86.68 81.57 Q 84.68 81.57 84.68 79.57 L 84.75 74.54 Q 84.75 72.54 86.75 72.54 Z"/><path class="water0" d="M 97.86 0.79 L 103.22 0.49 Q 105.22 0.49 105.22 2.49 L 105.39 7.52 Q 105.39 9.52 103.39 9.52 L 97.30 10.12 Q 95.30 10.12 95.30 8.12 L 95.86 2.79 Q 95.86 0.79 97.86 0.79 Z"/><path class="water1" d="M 97.30 12.12 L 103.39 11.52 Q 105.39 11.52 105.39 13.52 L 106.03 19.26 Q 106.03 21.26 104.03 21.26 L 97.26 21.27 Q 95.26 21.27 95.26 19.27 L 95.30 14.12 Q 95.30 12.12 97.30 12.12 Z"/><path class="water1" d="M 97.26 23.27 L 104.03 23.26 Q 106.03 23.26 106.03 25.26 L 106.64 32.08 Q 106.64 34.08 104.64 34.08 L 97.79 33.49 Q 95.79 33.49 95.79 31.49 L 95.26 25.27 Q 95.26 23.27 97.26 23.27 Z"/><path class="water1" d="M 97.79 35.49 L 104.64 36.08 Q 106.64 36.08 106.64 38.08 L 106.77 44.79 Q 106.77 46.79 104.77 46.79 L 98.47 46.45 Q 96.47 46.45 96.47 44.45 L 95.79 37.49 Q 95.79 35.49 97.79 35.49 Z"/><path class="water1" d="M 98.47 48.45 L 104.77 48.79 Q 106.77 48.79 106.77 50.79 L 106.32 56.34 Q 106.32 58.34 104.32 58.34 L 98.80 58.76 Q 96.80 58.76 96.80 56.76 L 96.47 50.45 Q 96.47 48.45 98.47 48.45 Z"/><path class="water2" d="M 98.80 60.76 L 104.32 60.34 Q 106.32 60.34 106.32 62.34 L 105.62 67.39 Q 105.62 69.39 103.62 69.39 L 98.52 69.95 Q 96.52 69.95 96.52 67.95 L 96.80 62.76 Q 96.80 60.76 98.80 60.76 Z"/><path class="water0" d="M 98.52 71.95 L 103.62 71.39 Q 105.62 71.39 105.62 73.39 L 105.21 79.34 Q 105.21 81.34 103.21 81.34 L 97.85 81.22 Q 95.85 81.22 95.85 79.22 L 96.52 73.95 Q 96.52 71.95 98.52 71.95 Z"/><path class="water2" d="M 109.22 0.49 L 115.57 -0.12 Q 117.57 -0.12 117.57 1.88 L 118.26 7.21 Q 118.26 9.21 116.26 9.21 L 109.39 9.52 Q 107.39 9.52 107.39 7.52 L 107.22 2.49 Q 107.22 0.49 109.22 0.49 Z"/><path class="water2" d="M 109.39 11.52 L 116.26 11.21 Q 118.26 11.21 118.26 13.21 L 118.75 19.69 Q 118.75 21.69 116.75 21.69 L 110.03 21.26 Q 108.03 21.26 108.03 19.26 L 107.39 13.52 Q 107.39 11.52 109.39 11.52 Z"/><path class="water2" d="M 110.03 23.26 L 116.75 23.69 Q 118.75 23.69 118.75 25.69 L 118.68 32.63 Q 118.68 34.63 116.68 34.63 L 110.64 34.08 Q 108.64 34.08 108.64 32.08 L 108.03 25.26 Q 108.03 23.26 110.03 23.26 Z"/><path class="water1" d="M 110.64 36.08 L 116.68 36.63 Q 118.68 36.63 118.68 38.63 L 118.09 44.64 Q 118.09 46.64 116.09 46.64 L 110.77 46.79 Q 108.77 46.79 108.77 44.79 L 108.64 38.08 Q 108.64 36.08 110.64 36.08 Z"/><path class="water1" d="M 110.77 48.79 L 116.09 48.64 Q 118.09 48.64 118.09 50.64 L 117.43 55.72 Q 117.43 57.72 115.43 57.72 L 110.32 58.34 Q 108.32 58.34 108.32 56.34 L 108.77 50.79 Q 108.77 48.79 110.77 48.79 Z"/><path class="water1" d="M 110.32 60.34 L 115.43 59.72 Q 117.43 59.72 117.43 61.72 L 117.21 67.20 Q 117.21 69.20 115.21 69.20 L 109.62 69.39 Q 107.62 69.39 107.62 67.39 L 108.32 62.34 Q 108.32 60.34 110.32 60.34 Z"/><path class="water0" d="M 109.62 71.39 L 115.21 71.20 Q 117.21 71.20 117.21 73.20 L 117.58 79.86 Q 117.58 81.86 115.58 81.86 L 109.21 81.34 Q 107.21 81.34 107.21 79.34 L 107.62 73.39 Q 107.62 71.39 109.62 71.39 Z"/><path class="water1" d="M 121.57 -0.12 L 128.47 -0.65 Q 130.47 -0.65 130.47 1.35 L 130.80 7.38 Q 130.80 9.38 128.80 9.38 L 122.26 9.21 Q 120.26 9.21 120.26 7.21 L 119.57 1.88 Q 119.57 -0.12 121.57 -0.12 Z"/><path class="water1" d="M 122.26 11.21 L 128.80 11.38 Q 130.80 11.38 130.80 13.38 L 130.52 20.31 Q 130.52 22.31 128.52 22.31 L 122.75 21.69 Q 120.75 21.69 120.75 19.69 L 120.26 13.21 Q 120.26 11.21 122.26 11.21 Z"/><path class="water2" d="M 122.75 23.69 L 128.52 24.31 Q 130.52 24.31 130.52 26.31 L 129.85 32.79 Q 129.85 34.79 127.85 34.79 L 122.68 34.63 Q 120.68 34.63 120.68 32.63 L 120.75 25.69 Q 120.75 23.69 122.75 23.69 Z"/><path class="water1" d="M 122.68 36.63 L 127.85 36.79 Q 129.85 36.79 129.85 38.79 L 129.29 44.11 Q 129.29 46.11 127.29 46.11 L 122.09 46.64 Q 120.09 46.64 120.09 44.64 L 120.68 38.63 Q 120.68 36.63 122.68 36.63 Z"/><path class="water2" d="M 122.09 48.64 L 127.29 48.11 Q 129.29 48.11 129.29 50.11 L 129.27 55.27 Q 129.27 57.27 127.27 57.27 L 121.43 57.72 Q 119.43 57.72 119.43 55.72 L 120.09 50.64 Q 120.09 48.64 122.09 48.64 Z"/><path class="water0" d="M 121.43 59.72 L 127.27 59.27 Q 129.27 59.27 129.27 61.27 L 129.80 67.50 Q 129.80 69.50 127.80 69.50 L 121.21 69.20 Q 119.21 69.20 119.21 67.20 L 119.43 61.72 Q 119.43 59.72 121.43 59.72 Z"/><path class="water0" d="M 121.21 71.20 L 127.80 71.50 Q 129.80 71.50 129.80 73.50 L 130.48 80.47 Q 130.48 82.47 128.48 82.47 L 121.58 81.86 Q 119.58 81.86 119.58 79.86 L 119.21 73.20 Q 119.21 71.20 121.21 71.20 Z"/><path class="water0" d="M 134.47 -0.65 L 140.77 -0.79 Q 142.77 -0.79 142.77 1.21 L 142.32 7.92 Q 142.32 9.92 140.32 9.92 L 134.80 9.38 Q 132.80 9.38 132.80 7.38 L 132.47 1.35 Q 132.47 -0.65 134.47 -0.65 Z"/><path class="water1" d="M 134.80 11.38 L 140.32 11.92 Q 142.32 11.92 142.32 13.92 L 141.62 20.75 Q 141.62 22.75 139.62 22.75 L 134.52 22.31 Q 132.52 22.31 132.52 20.31 L 132.80 13.38 Q 132.80 11.38 134.80 11.38 Z"/><path class="water1" d="M 134.52 24.31 L 139.62 24.75 Q 141.62 24.75 141.62 26.75 L 141.21 32.48 Q 141.21 34.48 139.21 34.48 L 133.85 34.79 Q 131.85 34.79 131.85 32.79 L 132.52 26.31 Q 132.52 24.31 134.52 24.31 Z"/><path class="water1" d="M 133.85 36.79 L 139.21 36.48 Q 141.21 36.48 141.21 38.48 L 141.40 43.51 Q 141.40 45.51 139.40 45.51 L 133.29 46.11 Q 131.29 46.11 131.29 44.11 L 131.85 38.79 Q 131.85 36.79 133.85 36.79 Z"/><path class="water1" d="M 133.29 48.11 L 139.40 47.51 Q 141.40 47.51 141.40 49.51 L 142.04 55.26 Q 142.04 57.26 140.04 57.26 L 133.27 57.27 Q 131.27 57.27 131.27 55.27 L 131.29 50.11 Q 131.29 48.11 133.29 48.11 Z"/><path class="water1" d="M 133.27 59.27 L 140.04 59.26 Q 142.04 59.26 142.04 61.26 L 142.65 68.10 Q 142.65 70.10 140.65 70.10 L 133.80 69.50 Q 131.80 69.50 131.80 67.50 L 131.27 61.27 Q 131.27 59.27 133.27 59.27 Z"/><path class="water0" d="M 133.80 71.50 L 140.65 72.10 Q 142.65 72.10 142.65 74.10 L 142.77 80.79 Q 142.77 82.79 140.77 82.79 L 134.48 82.47 Q 132.48 82.47 132.48 80.47 L 131.80 73.50 Q 131.80 71.50 133.80 71.50 Z"/><path class="water0" d="M 146.77 -0.79 L 152.09 -0.45 Q 154.09 -0.45 154.09 1.55 L 153.43 8.52 Q 153.43 10.52 151.43 10.52 L 146.32 9.92 Q 144.32 9.92 144.32 7.92 L 144.77 1.21 Q 144.77 -0.79 146.77 -0.79 Z"/><path class="water0" d="M 146.32 11.92 L 151.43 12.52 Q 153.43 12.52 153.43 14.52 L 153.21 20.73 Q 153.21 22.73 151.21 22.73 L 145.62 22.75 Q 143.62 22.75 143.62 20.75 L 144.32 13.92 Q 144.32 11.92 146.32 11.92 Z"/><path class="water1" d="M 145.62 24.75 L 151.21 24.73 Q 153.21 24.73 153.21 26.73 L 153.58 31.87 Q 153.58 33.87 151.58 33.87 L 145.21 34.48 Q 143.21 34.48 143.21 32.48 L 143.62 26.75 Q 143.62 24.75 145.62 24.75 Z"/><path class="water2" d="M 145.21 36.48 L 151.58 35.87 Q 153.58 35.87 153.58 37.87 L 154.27 43.20 Q 154.27 45.20 152.27 45.20 L 145.40 45.51 Q 143.40 45.51 143.40 43.51 L 143.21 38.48 Q 143.21 36.48 145.21 36.48 Z"/><path class="water1" d="M 145.40 47.51 L 152.27 47.20 Q 154.27 47.20 154.27 49.20 L 154.76 55.70 Q 154.76 57.70 152.76 57.70 L 146.04 57.26 Q 144.04 57.26 144.04 55.26 L 143.40 49.51 Q 143.40 47.51 145.40 47.51 Z"/><path class="water2" d="M 146.04 59.26 L 152.76 59.70 Q 154.76 59.70 154.76 61.70 L 154.67 68.64 Q 154.67 70.64 152.67 70.64 L 146.65 70.10 Q 144.65 70.10 144.65 68.10 L 144.04 61.26 Q 144.04 59.26 146.04 59.26 Z"/><path class="water0" d="M 146.65 72.10 L 152.67 72.64 Q 154.67 72.64 154.67 74.64 L 154.07 80.64 Q 154.07 82.64 152.07 82.64 L 146.77 82.79 Q 144.77 82.79 144.77 80.79 L 144.65 74.10 Q 144.65 72.10 146.65 72.10 Z"/><path class="water0" d="M 158.09 -0.45 L 163.29 0.16 Q 165.29 0.16 165.29 2.16 L 165.27 8.80 Q 165.27 10.80 163.27 10.80 L 157.43 10.52 Q 155.43 10.52 155.43 8.52 L 156.09 1.55 Q 156.09 -0.45 158.09 -0.45 Z"/><path class="water1" d="M 157.43 12.52 L 163.27 12.80 Q 165.27 12.80 165.27 14.80 L 165.80 20.26 Q 165.80 22.26 163.80 22.26 L 157.21 22.73 Q 155.21 22.73 155.21 20.73 L 155.43 14.52 Q 155.43 12.52 157.43 12.52 Z"/><path class="water2" d="M 157.21 24.73 L 163.80 24.26 Q 165.80 24.26 165.80 26.26 L 166.48 31.34 Q 166.48 33.34 164.48 33.34 L 157.58 33.87 Q 155.58 33.87 155.58 31.87 L 155.21 26.73 Q 155.21 24.73 157.21 24.73 Z"/><path class="water1" d="M 157.58 35.87 L 164.48 35.34 Q 166.48 35.34 166.48 37.34 L 166.80 43.38 Q 166.80 45.38 164.80 45.38 L 158.27 45.20 Q 156.27 45.20 156.27 43.20 L 155.58 37.87 Q 155.58 35.87 157.58 35.87 Z"/><path class="water1" d="M 158.27 47.20 L 164.80 47.38 Q 166.80 47.38 166.80 49.38 L 166.51 56.33 Q 166.51 58.33 164.51 58.33 L 158.76 57.70 Q 156.76 57.70 156.76 55.70 L 156.27 49.20 Q 156.27 47.20 158.27 47.20 Z"/><path class="water1" d="M 158.76 59.70 L 164.51 60.33 Q 166.51 60.33 166.51 62.33 L 165.83 68.79 Q 165.83 70.79 163.83 70.79 L 158.67 70.64 Q 156.67 70.64 156.67 68.64 L 156.76 61.70 Q 156.76 59.70 158.76 59.70 Z"/><path class="water0" d="M 158.67 72.64 L 163.83 72.79 Q 165.83 72.79 165.83 74.79 L 165.28 80.10 Q 165.28 82.10 163.28 82.10 L 158.07 82.64 Q 156.07 82.64 156.07 80.64 L 156.67 74.64 Q 156.67 72.64 158.67 72.64 Z"/><path class="water0" d="M 169.29 0.16 L 175.40 0.68 Q 177.40 0.68 177.40 2.68 L 178.04 8.59 Q 178.04 10.59 176.04 10.59 L 169.27 10.80 Q 167.27 10.80 167.27 8.80 L 167.29 2.16 Q 167.29 0.16 169.29 0.16 Z"/><path class="water1" d="M 169.27 12.80 L 176.04 12.59 Q 178.04 12.59 178.04 14.59 L 178.65 19.64 Q 178.65 21.64 176.65 21.64 L 169.80 22.26 Q 167.80 22.26 167.80 20.26 L 167.27 14.80 Q 167.27 12.80 169.27 12.80 Z"/><path class="water1" d="M 169.80 24.26 L 176.65 23.64 Q 178.65 23.64 178.65 25.64 L 178.77 31.21 Q 178.77 33.21 176.77 33.21 L 170.48 33.34 Q 168.48 33.34 168.48 31.34 L 167.80 26.26 Q 167.80 24.26 169.80 24.26 Z"/><path class="water1" d="M 170.48 35.34 L 176.77 35.21 Q 178.77 35.21 178.77 37.21 L 178.31 43.94 Q 178.31 45.94 176.31 45.94 L 170.80 45.38 Q 168.80 45.38 168.80 43.38 L 168.48 37.34 Q 168.48 35.34 170.48 35.34 Z"/><path class="water1" d="M 170.80 47.38 L 176.31 47.94 Q 178.31 47.94 178.31 49.94 L 177.61 56.75 Q 177.61 58.75 175.61 58.75 L 170.51 58.33 Q 168.51 58.33 168.51 56.33 L 168.80 49.38 Q 168.80 47.38 170.80 47.38 Z"/><path class="water0" d="M 170.51 60.33 L 175.61 60.75 Q 177.61 60.75 177.61 62.75 L 177.21 68.47 Q 177.21 70.47 175.21 70.47 L 169.83 70.79 Q 167.83 70.79 167.83 68.79 L 168.51 62.33 Q 168.51 60.33 170.51 60.33 Z"/><path class="water0" d="M 169.83 72.79 L 175.21 72.47 Q 177.21 72.47 177.21 74.47 L 177.41 79.50 Q 177.41 81.50 175.41 81.50 L 169.28 82.10 Q 167.28 82.10 167.28 80.10 L 167.83 74.79 Q 167.83 72.79 169.83 72.79 Z"/><path class="water0" d="M 181.40 0.68 L 188.27 0.78 Q 190.27 0.78 190.27 2.78 L 190.76 8.03 Q 190.76 10.03 188.76 10.03 L 182.04 10.59 Q 180.04 10.59 180.04 8.59 L 179.40 2.68 Q 179.40 0.68 181.40 0.68 Z"/><path class="water0" d="M 182.04 12.59 L 188.76 12.03 Q 190.76 12.03 190.76 14.03 L 190.67 19.24 Q 190.67 21.24 188.67 21.24 L 182.65 21.64 Q 180.65 21.64 180.65 19.64 L 180.04 14.59 Q 180.04 12.59 182.04 12.59 Z"/><path class="water1" d="M 182.65 23.64 L 188.67 23.24 Q 190.67 23.24 190.67 25.24 L 190.07 31.56 Q 190.07 33.56 188.07 33.56 L 182.77 33.21 Q 180.77 33.21 180.77 31.21 L 180.65 25.64 Q 180.65 23.64 182.65 23.64 Z"/><path class="water1" d="M 182.77 35.21 L 188.07 35.56 Q 190.07 35.56 190.07 37.56 L 189.42 44.53 Q 189.42 46.53 187.42 46.53 L 182.31 45.94 Q 180.31 45.94 180.31 43.94 L 180.77 37.21 Q 180.77 35.21 182.77 35.21 Z"/><path class="water1" d="M 182.31 47.94 L 187.42 48.53 Q 189.42 48.53 189.42 50.53 L 189.21 56.72 Q 189.21 58.72 187.21 58.72 L 181.61 58.75 Q 179.61 58.75 179.61 56.75 L 180.31 49.94 Q 180.31 47.94 182.31 47.94 Z"/><path class="water1" d="M 181.61 60.75 L 187.21 60.72 Q 189.21 60.72 189.21 62.72 L 189.59 67.86 Q 189.59 69.86 187.59 69.86 L 181.21 70.47 Q 179.21 70.47 179.21 68.47 L 179.61 62.75 Q 179.61 60.75 181.61 60.75 Z"/><path class="water0" d="M 181.21 72.47 L 187.59 71.86 Q 189.59 71.86 189.59 73.86 L 190.29 79.20 Q 190.29 81.20 188.29 81.20 L 181.41 81.50 Q 179.41 81.50 179.41 79.50 L 179.21 74.47 Q 179.21 72.47 181.21 72.47 Z"/><path class="water0" d="M 194.27 0.78 L 200.80 0.41 Q 202.80 0.41 202.80 2.41 L 202.51 7.45 Q 202.51 9.45 200.51 9.45 L 194.76 10.03 Q 192.76 10.03 192.76 8.03 L 192.27 2.78 Q 192.27 0.78 194.27 0.78 Z"/><path class="water1" d="M 194.76 12.03 L 200.51 11.45 Q 202.51 11.45 202.51 13.45 L 201.83 19.29 Q 201.83 21.29 199.83 21.29 L 194.67 21.24 Q 192.67 21.24 192.67 19.24 L 192.76 14.03 Q 192.76 12.03 194.76 12.03 Z"/><path class="water1" d="M 194.67 23.24 L 199.83 23.29 Q 201.83 23.29 201.83 25.29 L 201.28 32.18 Q 201.28 34.18 199.28 34.18 L 194.07 33.56 Q 192.07 33.56 192.07 31.56 L 192.67 25.24 Q 192.67 23.24 194.67 23.24 Z"/><path class="water0" d="M 194.07 35.56 L 199.28 36.18 Q 201.28 36.18 201.28 38.18 L 201.28 44.80 Q 201.28 46.80 199.28 46.80 L 193.42 46.53 Q 191.42 46.53 191.42 44.53 L 192.07 37.56 Q 192.07 35.56 194.07 35.56 Z"/><path class="water0" d="M 193.42 48.53 L 199.28 48.80 Q 201.28 48.80 201.28 50.80 L 201.82 56.25 Q 201.82 58.25 199.82 58.25 L 193.21 58.72 Q 191.21 58.72 191.21 56.72 L 191.42 50.53 Q 191.42 48.53 193.42 48.53 Z"/><path class="water0" d="M 193.21 60.72 L 199.82 60.25 Q 201.82 60.25 201.82 62.25 L 202.50 67.34 Q 202.50 69.34 200.50 69.34 L 193.59 69.86 Q 191.59 69.86 191.59 67.86 L 191.21 62.72 Q 191.21 60.72 193.21 60.72 Z"/><path class="water0" d="M 193.59 71.86 L 200.50 71.34 Q 202.50 71.34 202.50 73.34 L 202.80 79.39 Q 202.80 81.39 200.80 81.39 L 194.29 81.20 Q 192.29 81.20 192.29 79.20 L 191.59 73.86 Q 191.59 71.86 193.59 71.86 Z"/><path class="water0" d="M 206.80 0.41 L 212.31 -0.21 Q 214.31 -0.21 214.31 1.79 L 213.61 7.20 Q 213.61 9.20 211.61 9.20 L 206.51 9.45 Q 204.51 9.45 204.51 7.45 L 204.80 2.41 Q 204.80 0.41 206.80 0.41 Z"/><path class="water0" d="M 206.51 11.45 L 211.61 11.20 Q 213.61 11.20 213.61 13.20 L 213.21 19.78 Q 213.21 21.78 211.21 21.78 L 205.83 21.29 Q 203.83 21.29 203.83 19.29 L 204.51 13.45 Q 204.51 11.45 206.51 11.45 Z"/><path class="water0" d="M 205.83 23.29 L 211.21 23.78 Q 213.21 23.78 213.21 25.78 L 213.41 32.68 Q 213.41 34.68 211.41 34.68 L 205.28 34.18 Q 203.28 34.18 203.28 32.18 L 203.83 25.29 Q 203.83 23.29 205.83 23.29 Z"/><path class="water0" d="M 205.28 36.18 L 211.41 36.68 Q 213.41 36.68 213.41 38.68 L 214.05 44.59 Q 214.05 46.59 212.05 46.59 L 205.28 46.80 Q 203.28 46.80 203.28 44.80 L 203.28 38.18 Q 203.28 36.18 205.28 36.18 Z"/><path class="water0" d="M 205.28 48.80 L 212.05 48.59 Q 214.05 48.59 214.05 50.59 L 214.66 55.63 Q 214.66 57.63 212.66 57.63 L 205.82 58.25 Q 203.82 58.25 203.82 56.25 L 203.28 50.80 Q 203.28 48.80 205.28 48.80 Z"/><path class="water0" d="M 205.82 60.25 L 212.66 59.63 Q 214.66 59.63 214.66 61.63 L 214.77 67.22 Q 214.77 69.22 212.77 69.22 L 206.50 69.34 Q 204.50 69.34 204.50 67.34 L 203.82 62.25 Q 203.82 60.25 205.82 60.25 Z"/><path class="water0" d="M 206.50 71.34 L 212.77 71.22 Q 214.77 71.22 214.77 73.22 L 214.29 79.95 Q 214.29 81.95 212.29 81.95 L 206.80 81.39 Q 204.80 81.39 204.80 79.39 L 204.50 73.34 Q 204.50 71.34 206.50 71.34 Z"/><path class="water0" d="M 218.31 -0.21 L 223.42 -0.70 Q 225.42 -0.70 225.42 1.30 L 225.21 7.44 Q 225.21 9.44 223.21 9.44 L 217.61 9.20 Q 215.61 9.20 215.61 7.20 L 216.31 1.79 Q 216.31 -0.21 218.31 -0.21 Z"/><path class="water0" d="M 217.61 11.20 L 223.21 11.44 Q 225.21 11.44 225.21 13.44 L 225.59 20.40 Q 225.59 22.40 223.59 22.40 L 217.21 21.78 Q 215.21 21.78 215.21 19.78 L 215.61 13.20 Q 215.61 11.20 217.61 11.20 Z"/><path class="water0" d="M 217.21 23.78 L 223.59 24.40 Q 225.59 24.40 225.59 26.40 L 226.29 32.78 Q 226.29 34.78 224.29 34.78 L 217.41 34.68 Q 215.41 34.68 215.41 32.68 L 215.21 25.78 Q 215.21 23.78 217.21 23.78 Z"/><path class="water0" d="M 217.41 36.68 L 224.29 36.78 Q 226.29 36.78 226.29 38.78 L 226.76 44.02 Q 226.76 46.02 224.76 46.02 L 218.05 46.59 Q 216.05 46.59 216.05 44.59 L 215.41 38.68 Q 215.41 36.68 217.41 36.68 Z"/><path class="water0" d="M 218.05 48.59 L 224.76 48.02 Q 226.76 48.02 226.76 50.02 L 226.66 55.23 Q 226.66 57.23 224.66 57.23 L 218.66 57.63 Q 216.66 57.63 216.66 55.63 L 216.05 50.59 Q 216.05 48.59 218.05 48.59 Z"/><path class="water0" d="M 218.66 59.63 L 224.66 59.23 Q 226.66 59.23 226.66 61.23 L 226.06 67.57 Q 226.06 69.57 224.06 69.57 L 218.77 69.22 Q 216.77 69.22 216.77 67.22 L 216.66 61.63 Q 216.66 59.63 218.66 59.63 Z"/><path class="water0" d="M 218.77 71.22 L 224.06 71.57 Q 226.06 71.57 226.06 73.57 L 225.41 80.54 Q 225.41 82.54 223.41 82.54 L 218.29 81.95 Q 216.29 81.95 216.29 79.95 L 216.77 73.22 Q 216.77 71.22 218.77 71.22 Z"/><path class="water0" d="M 229.42 -0.70 L 235.28 -0.77 Q 237.28 -0.77 237.28 1.23 L 237.82 8.02 Q 237.82 10.02 235.82 10.02 L 229.21 9.44 Q 227.21 9.44 227.21 7.44 L 227.42 1.30 Q 227.42 -0.70 229.42 -0.70 Z"/><path class="water0" d="M 229.21 11.44 L 235.82 12.02 Q 237.82 12.02 237.82 14.02 L 238.50 20.78 Q 238.50 22.78 236.50 22.78 L 229.59 22.40 Q 227.59 22.40 227.59 20.40 L 227.21 13.44 Q 227.21 11.44 229.21 11.44 Z"/><path class="water0" d="M 229.59 24.40 L 236.50 24.78 Q 238.50 24.78 238.50 26.78 L 238.80 32.40 Q 238.80 34.40 236.80 34.40 L 230.29 34.78 Q 228.29 34.78 228.29 32.78 L 227.59 26.40 Q 227.59 24.40 229.59 24.40 Z"/><path class="water0" d="M 230.29 36.78 L 236.80 36.40 Q 238.80 36.40 238.80 38.40 L 238.50 43.44 Q 238.50 45.44 236.50 45.44 L 230.76 46.02 Q 228.76 46.02 228.76 44.02 L 228.29 38.78 Q 228.29 36.78 230.29 36.78 Z"/><path class="water0" d="M 230.76 48.02 L 236.50 47.44 Q 238.50 47.44 238.50 49.44 L 237.82 55.30 Q 237.82 57.30 235.82 57.30 L 230.66 57.23 Q 228.66 57.23 228.66 55.23 L 228.76 50.02 Q 228.76 48.02 230.76 48.02 Z"/><path class="water0" d="M 230.66 59.23 L 235.82 59.30 Q 237.82 59.30 237.82 61.30 L 237.28 68.19 Q 237.28 70.19 235.28 70.19 L 230.06 69.57 Q 228.06 69.57 228.06 67.57 L 228.66 61.23 Q 228.66 59.23 230.66 59.23 Z"/><path class="water0" d="M 230.06 71.57 L 235.28 72.19 Q 237.28 72.19 237.28 74.19 L 237.28 80.80 Q 237.28 82.80 235.28 82.80 L 229.41 82.54 Q 227.41 82.54 227.41 80.54 L 228.06 73.57 Q 228.06 71.57 230.06 71.57 Z"/><path class="water0" d="M 241.28 -0.77 L 248.05 -0.37 Q 250.05 -0.37 250.05 1.63 L 250.66 8.59 Q 250.66 10.59 248.66 10.59 L 241.82 10.02 Q 239.82 10.02 239.82 8.02 L 239.28 1.23 Q 239.28 -0.77 241.28 -0.77 Z"/><path class="water0" d="M 241.82 12.02 L 248.66 12.59 Q 250.66 12.59 250.66 14.59 L 250.77 20.68 Q 250.77 22.68 248.77 22.68 L 242.50 22.78 Q 240.50 22.78 240.50 20.78 L 239.82 14.02 Q 239.82 12.02 241.82 12.02 Z"/><path class="water0" d="M 242.50 24.78 L 248.77 24.68 Q 250.77 24.68 250.77 26.68 L 250.29 31.78 Q 250.29 33.78 248.29 33.78 L 242.80 34.40 Q 240.80 34.40 240.80 32.40 L 240.50 26.78 Q 240.50 24.78 242.50 24.78 Z"/><path class="water0" d="M 242.80 36.40 L 248.29 35.78 Q 250.29 35.78 250.29 37.78 L 249.60 43.20 Q 249.60 45.20 247.60 45.20 L 242.50 45.44 Q 240.50 45.44 240.50 43.44 L 240.80 38.40 Q 240.80 36.40 242.80 36.40 Z"/><path class="water0" d="M 242.50 47.44 L 247.60 47.20 Q 249.60 47.20 249.60 49.20 L 249.21 55.79 Q 249.21 57.79 247.21 57.79 L 241.82 57.30 Q 239.82 57.30 239.82 55.30 L 240.50 49.44 Q 240.50 47.44 242.50 47.44 Z"/><path class="water0" d="M 241.82 59.30 L 247.21 59.79 Q 249.21 59.79 249.21 61.79 L 249.42 68.69 Q 249.42 70.69 247.42 70.69 L 241.28 70.19 Q 239.28 70.19 239.28 68.19 L 239.82 61.30 Q 239.82 59.30 241.82 59.30 Z"/><path class="water0" d="M 241.28 72.19 L 247.42 72.69 Q 249.42 72.69 249.42 74.69 L 250.07 80.58 Q 250.07 82.58 248.07 82.58 L 241.28 82.80 Q 239.28 82.80 239.28 80.80 L 239.28 74.19 Q 239.28 72.19 241.28 72.19 Z"/><path class="water0" d="M 254.05 -0.37 L 260.76 0.25 Q 262.76 0.25 262.76 2.25 L 262.66 8.80 Q 262.66 10.80 260.66 10.80 L 254.66 10.59 Q 252.66 10.59 252.66 8.59 L 252.05 1.63 Q 252.05 -0.37 254.05 -0.37 Z"/><path class="water0" d="M 254.66 12.59 L 260.66 12.80 Q 262.66 12.80 262.66 14.80 L 262.06 20.17 Q 262.06 22.17 260.06 22.17 L 254.77 22.68 Q 252.77 22.68 252.77 20.68 L 252.66 14.59 Q 252.66 12.59 254.66 12.59 Z"/><path class="water0" d="M 254.77 24.68 L 260.06 24.17 Q 262.06 24.17 262.06 26.17 L 261.41 31.29 Q 261.41 33.29 259.41 33.29 L 254.29 33.78 Q 252.29 33.78 252.29 31.78 L 252.77 26.68 Q 252.77 24.68 254.77 24.68 Z"/><path class="water1" d="M 254.29 35.78 L 259.41 35.29 Q 261.41 35.29 261.41 37.29 L 261.21 43.45 Q 261.21 45.45 259.21 45.45 L 253.60 45.20 Q 251.60 45.20 251.60 43.20 L 252.29 37.78 Q 252.29 35.78 254.29 35.78 Z"/><path class="water0" d="M 253.60 47.20 L 259.21 47.45 Q 261.21 47.45 261.21 49.45 L 261.61 56.41 Q 261.61 58.41 259.61 58.41 L 253.21 57.79 Q 251.21 57.79 251.21 55.79 L 251.60 49.20 Q 251.60 47.20 253.60 47.20 Z"/><path class="water0" d="M 253.21 59.79 L 259.61 60.41 Q 261.61 60.41 261.61 62.41 L 262.30 68.77 Q 262.30 70.77 260.30 70.77 L 253.42 70.69 Q 251.42 70.69 251.42 68.69 L 251.21 61.79 Q 251.21 59.79 253.21 59.79 Z"/><path class="water0" d="M 253.42 72.69 L 260.30 72.77 Q 262.30 72.77 262.30 74.77 L 262.77 80.00 Q 262.77 82.00 260.77 82.00 L 254.07 82.58 Q 252.07 82.58 252.07 80.58 L 251.42 74.69 Q 251.42 72.69 253.42 72.69 Z"/><path class="water0" d="M 266.76 0.25 L 272.50 0.72 Q 274.50 0.72 274.50 2.72 L 273.82 8.53 Q 273.82 10.53 271.82 10.53 L 266.66 10.80 Q 264.66 10.80 264.66 8.80 L 264.76 2.25 Q 264.76 0.25 266.76 0.25 Z"/><path class="water0" d="M 266.66 12.80 L 271.82 12.53 Q 273.82 12.53 273.82 14.53 L 273.28 19.56 Q 273.28 21.56 271.28 21.56 L 266.06 22.17 Q 264.06 22.17 264.06 20.17 L 264.66 14.80 Q 264.66 12.80 266.66 12.80 Z"/><path class="water0" d="M 266.06 24.17 L 271.28 23.56 Q 273.28 23.56 273.28 25.56 L 273.28 31.24 Q 273.28 33.24 271.28 33.24 L 265.41 33.29 Q 263.41 33.29 263.41 31.29 L 264.06 26.17 Q 264.06 24.17 266.06 24.17 Z"/><path class="water0" d="M 265.41 35.29 L 271.28 35.24 Q 273.28 35.24 273.28 37.24 L 273.83 44.03 Q 273.83 46.03 271.83 46.03 L 265.21 45.45 Q 263.21 45.45 263.21 43.45 L 263.41 37.29 Q 263.41 35.29 265.41 35.29 Z"/><path class="water0" d="M 265.21 47.45 L 271.83 48.03 Q 273.83 48.03 273.83 50.03 L 274.51 56.78 Q 274.51 58.78 272.51 58.78 L 265.61 58.41 Q 263.61 58.41 263.61 56.41 L 263.21 49.45 Q 263.21 47.45 265.21 47.45 Z"/><path class="water0" d="M 265.61 60.41 L 272.51 60.78 Q 274.51 60.78 274.51 62.78 L 274.80 68.39 Q 274.80 70.39 272.80 70.39 L 266.30 70.77 Q 264.30 70.77 264.30 68.77 L 263.61 62.41 Q 263.61 60.41 265.61 60.41 Z"/><path class="water0" d="M 266.30 72.77 L 272.80 72.39 Q 274.80 72.39 274.80 74.39 L 274.49 79.43 Q 274.49 81.43 272.49 81.43 L 266.77 82.00 Q 264.77 82.00 264.77 80.00 L 264.30 74.77 Q 264.30 72.77 266.30 72.77 Z"/><path class="water0" d="M 278.50 0.72 L 283.60 0.75 Q 285.60 0.75 285.60 2.75 L 285.21 7.94 Q 285.21 9.94 283.21 9.94 L 277.82 10.53 Q 275.82 10.53 275.82 8.53 L 276.50 2.72 Q 276.50 0.72 278.50 0.72 Z"/><path class="water0" d="M 277.82 12.53 L 283.21 11.94 Q 285.21 11.94 285.21 13.94 L 285.42 19.21 Q 285.42 21.21 283.42 21.21 L 277.28 21.56 Q 275.28 21.56 275.28 19.56 L 275.82 14.53 Q 275.82 12.53 277.82 12.53 Z"/><path class="water0" d="M 277.28 23.56 L 283.42 23.21 Q 285.42 23.21 285.42 25.21 L 286.07 31.64 Q 286.07 33.64 284.07 33.64 L 277.28 33.24 Q 275.28 33.24 275.28 31.24 L 275.28 25.56 Q 275.28 23.56 277.28 23.56 Z"/><path class="water0" d="M 277.28 35.24 L 284.07 35.64 Q 286.07 35.64 286.07 37.64 L 286.67 44.59 Q 286.67 46.59 284.67 46.59 L 277.83 46.03 Q 275.83 46.03 275.83 44.03 L 275.28 37.24 Q 275.28 35.24 277.28 35.24 Z"/><path class="water0" d="M 277.83 48.03 L 284.67 48.59 Q 286.67 48.59 286.67 50.59 L 286.76 56.67 Q 286.76 58.67 284.76 58.67 L 278.51 58.78 Q 276.51 58.78 276.51 56.78 L 275.83 50.03 Q 275.83 48.03 277.83 48.03 Z"/><path class="water0" d="M 278.51 60.78 L 284.76 60.67 Q 286.76 60.67 286.76 62.67 L 286.28 67.77 Q 286.28 69.77 284.28 69.77 L 278.80 70.39 Q 276.80 70.39 276.80 68.39 L 276.51 62.78 Q 276.51 60.78 278.51 60.78 Z"/><path class="water0" d="M 278.80 72.39 L 284.28 71.77 Q 286.28 71.77 286.28 73.77 L 285.59 79.20 Q 285.59 81.20 283.59 81.20 L 278.49 81.43 Q 276.49 81.43 276.49 79.43 L 276.80 74.39 Q 276.80 72.39 278.80 72.39 Z"/><path class="water0" d="M 289.60 0.75 L 295.21 0.33 Q 297.21 0.33 297.21 2.33 L 297.61 7.38 Q 297.61 9.38 295.61 9.38 L 289.21 9.94 Q 287.21 9.94 287.21 7.94 L 287.60 2.75 Q 287.60 0.75 289.60 0.75 Z"/><path class="water0" d="M 289.21 11.94 L 295.61 11.38 Q 297.61 11.38 297.61 13.38 L 298.30 19.34 Q 298.30 21.34 296.30 21.34 L 289.42 21.21 Q 287.42 21.21 287.42 19.21 L 287.21 13.94 Q 287.21 11.94 289.21 11.94 Z"/><path class="water0" d="M 289.42 23.21 L 296.30 23.34 Q 298.30 23.34 298.30 25.34 L 298.77 32.27 Q 298.77 34.27 296.77 34.27 L 290.07 33.64 Q 288.07 33.64 288.07 31.64 L 287.42 25.21 Q 287.42 23.21 289.42 23.21 Z"/><path class="water0" d="M 290.07 35.64 L 296.77 36.27 Q 298.77 36.27 298.77 38.27 L 298.65 44.80 Q 298.65 46.80 296.65 46.80 L 290.67 46.59 Q 288.67 46.59 288.67 44.59 L 288.07 37.64 Q 288.07 35.64 290.07 35.64 Z"/><path class="water0" d="M 290.67 48.59 L 296.65 48.80 Q 298.65 48.80 298.65 50.80 L 298.05 56.16 Q 298.05 58.16 296.05 58.16 L 290.76 58.67 Q 288.76 58.67 288.76 56.67 L 288.67 50.59 Q 288.67 48.59 290.67 48.59 Z"/><path class="water0" d="M 290.76 60.67 L 296.05 60.16 Q 298.05 60.16 298.05 62.16 L 297.40 67.29 Q 297.40 69.29 295.40 69.29 L 290.28 69.77 Q 288.28 69.77 288.28 67.77 L 288.76 62.67 Q 288.76 60.67 290.76 60.67 Z"/><path class="water0" d="M 290.28 71.77 L 295.40 71.29 Q 297.40 71.29 297.40 73.29 L 297.21 79.46 Q 297.21 81.46 295.21 81.46 L 289.59 81.20 Q 287.59 81.20 287.59 79.20 L 288.28 73.77 Q 288.28 71.77 290.28 71.77 Z"/><path class="water0" d="M 301.21 0.33 L 307.83 -0.30 Q 309.83 -0.30 309.83 1.70 L 310.51 7.20 Q 310.51 9.20 308.51 9.20 L 301.61 9.38 Q 299.61 9.38 299.61 7.38 L 299.21 2.33 Q 299.21 0.33 301.21 0.33 Z"/><path class="water0" d="M 301.61 11.38 L 308.51 11.20 Q 310.51 11.20 310.51 13.20 L 310.80 19.87 Q 310.80 21.87 308.80 21.87 L 302.30 21.34 Q 300.30 21.34 300.30 19.34 L 299.61 13.38 Q 299.61 11.38 301.61 11.38 Z"/><path class="water0" d="M 302.30 23.34 L 308.80 23.87 Q 310.80 23.87 310.80 25.87 L 310.49 32.73 Q 310.49 34.73 308.49 34.73 L 302.77 34.27 Q 300.77 34.27 300.77 32.27 L 300.30 25.34 Q 300.30 23.34 302.30 23.34 Z"/><path class="water0" d="M 302.77 36.27 L 308.49 36.73 Q 310.49 36.73 310.49 38.73 L 309.81 44.52 Q 309.81 46.52 307.81 46.52 L 302.65 46.80 Q 300.65 46.80 300.65 44.80 L 300.77 38.27 Q 300.77 36.27 302.77 36.27 Z"/><path class="water0" d="M 302.65 48.80 L 307.81 48.52 Q 309.81 48.52 309.81 50.52 L 309.27 55.55 Q 309.27 57.55 307.27 57.55 L 302.05 58.16 Q 300.05 58.16 300.05 56.16 L 300.65 50.80 Q 300.65 48.80 302.65 48.80 Z"/><path class="water0" d="M 302.05 60.16 L 307.27 59.55 Q 309.27 59.55 309.27 61.55 L 309.29 67.24 Q 309.29 69.24 307.29 69.24 L 301.40 69.29 Q 299.40 69.29 299.40 67.29 L 300.05 62.16 Q 300.05 60.16 302.05 60.16 Z"/><path class="water0" d="M 301.40 71.29 L 307.29 71.24 Q 309.29 71.24 309.29 73.24 L 309.84 80.04 Q 309.84 82.04 307.84 82.04 L 301.21 81.46 Q 299.21 81.46 299.21 79.46 L 299.40 73.29 Q 299.40 71.29 301.40 71.29 Z"/><path class="water0" d="M 313.83 -0.30 L 320.67 -0.74 Q 322.67 -0.74 322.67 1.26 L 322.76 7.51 Q 322.76 9.51 320.76 9.51 L 314.51 9.20 Q 312.51 9.20 312.51 7.20 L 311.83 1.70 Q 311.83 -0.30 313.83 -0.30 Z"/><path class="water0" d="M 314.51 11.20 L 320.76 11.51 Q 322.76 11.51 322.76 13.51 L 322.28 20.48 Q 322.28 22.48 320.28 22.48 L 314.80 21.87 Q 312.80 21.87 312.80 19.87 L 312.51 13.20 Q 312.51 11.20 314.51 11.20 Z"/><path class="water0" d="M 314.80 23.87 L 320.28 24.48 Q 322.28 24.48 322.28 26.48 L 321.59 32.75 Q 321.59 34.75 319.59 34.75 L 314.49 34.73 Q 312.49 34.73 312.49 32.73 L 312.80 25.87 Q 312.80 23.87 314.80 23.87 Z"/><path class="water0" d="M 314.49 36.73 L 319.59 36.75 Q 321.59 36.75 321.59 38.75 L 321.21 43.92 Q 321.21 45.92 319.21 45.92 L 313.81 46.52 Q 311.81 46.52 311.81 44.52 L 312.49 38.73 Q 312.49 36.73 314.49 36.73 Z"/><path class="water0" d="M 313.81 48.52 L 319.21 47.92 Q 321.21 47.92 321.21 49.92 L 321.43 55.21 Q 321.43 57.21 319.43 57.21 L 313.27 57.55 Q 311.27 57.55 311.27 55.55 L 311.81 50.52 Q 311.81 48.52 313.81 48.52 Z"/><path class="water0" d="M 313.27 59.55 L 319.43 59.21 Q 321.43 59.21 321.43 61.21 L 322.08 67.66 Q 322.08 69.66 320.08 69.66 L 313.29 69.24 Q 311.29 69.24 311.29 67.24 L 311.27 61.55 Q 311.27 59.55 313.27 59.55 Z"/><path class="water0" d="M 313.29 71.24 L 320.08 71.66 Q 322.08 71.66 322.08 73.66 L 322.67 80.60 Q 322.67 82.60 320.67 82.60 L 313.84 82.04 Q 311.84 82.04 311.84 80.04 L 311.29 73.24 Q 311.29 71.24 313.29 71.24 Z"/><path class="water0" d="M 326.67 -0.74 L 332.65 -0.73 Q 334.65 -0.73 334.65 1.27 L 334.05 8.11 Q 334.05 10.11 332.05 10.11 L 326.76 9.51 Q 324.76 9.51 324.76 7.51 L 324.67 1.26 Q 324.67 -0.74 326.67 -0.74 Z"/><path class="water0" d="M 326.76 11.51 L 332.05 12.11 Q 334.05 12.11 334.05 14.11 L 333.40 20.79 Q 333.40 22.79 331.40 22.79 L 326.28 22.48 Q 324.28 22.48 324.28 20.48 L 324.76 13.51 Q 324.76 11.51 326.76 11.51 Z"/><path class="water0" d="M 326.28 24.48 L 331.40 24.79 Q 333.40 24.79 333.40 26.79 L 333.21 32.31 Q 333.21 34.31 331.21 34.31 L 325.59 34.75 Q 323.59 34.75 323.59 32.75 L 324.28 26.48 Q 324.28 24.48 326.28 24.48 Z"/><path class="water0" d="M 325.59 36.75 L 331.21 36.31 Q 333.21 36.31 333.21 38.31 L 333.62 43.38 Q 333.62 45.38 331.62 45.38 L 325.21 45.92 Q 323.21 45.92 323.21 43.92 L 323.59 38.75 Q 323.59 36.75 325.59 36.75 Z"/><path class="water0" d="M 325.21 47.92 L 331.62 47.38 Q 333.62 47.38 333.62 49.38 L 334.31 55.35 Q 334.31 57.35 332.31 57.35 L 325.43 57.21 Q 323.43 57.21 323.43 55.21 L 323.21 49.92 Q 323.21 47.92 325.21 47.92 Z"/><path class="water0" d="M 325.43 59.21 L 332.31 59.35 Q 334.31 59.35 334.31 61.35 L 334.77 68.28 Q 334.77 70.28 332.77 70.28 L 326.08 69.66 Q 324.08 69.66 324.08 67.66 L 323.43 61.21 Q 323.43 59.21 325.43 59.21 Z"/><path class="water0" d="M 326.08 71.66 L 332.77 72.28 Q 334.77 72.28 334.77 74.28 L 334.65 80.80 Q 334.65 82.80 332.65 82.80 L 326.67 82.60 Q 324.67 82.60 324.67 80.60 L 324.08 73.66 Q 324.08 71.66 326.08 71.66 Z"/><path class="water0" d="M 338.65 -0.73 L 343.81 -0.28 Q 345.81 -0.28 345.81 1.72 L 345.27 8.65 Q 345.27 10.65 343.27 10.65 L 338.05 10.11 Q 336.05 10.11 336.05 8.11 L 336.65 1.27 Q 336.65 -0.73 338.65 -0.73 Z"/><path class="water0" d="M 338.05 12.11 L 343.27 12.65 Q 345.27 12.65 345.27 14.65 L 345.29 20.63 Q 345.29 22.63 343.29 22.63 L 337.40 22.79 Q 335.40 22.79 335.40 20.79 L 336.05 14.11 Q 336.05 12.11 338.05 12.11 Z"/><path class="water0" d="M 337.40 24.79 L 343.29 24.63 Q 345.29 24.63 345.29 26.63 L 345.84 31.69 Q 345.84 33.69 343.84 33.69 L 337.21 34.31 Q 335.21 34.31 335.21 32.31 L 335.40 26.79 Q 335.40 24.79 337.40 24.79 Z"/><path class="water0" d="M 337.21 36.31 L 343.84 35.69 Q 345.84 35.69 345.84 37.69 L 346.52 43.21 Q 346.52 45.21 344.52 45.21 L 337.62 45.38 Q 335.62 45.38 335.62 43.38 L 335.21 38.31 Q 335.21 36.31 337.21 36.31 Z"/><path class="water0" d="M 337.62 47.38 L 344.52 47.21 Q 346.52 47.21 346.52 49.21 L 346.80 55.88 Q 346.80 57.88 344.80 57.88 L 338.31 57.35 Q 336.31 57.35 336.31 55.35 L 335.62 49.38 Q 335.62 47.38 337.62 47.38 Z"/><path class="water0" d="M 338.31 59.35 L 344.80 59.88 Q 346.80 59.88 346.80 61.88 L 346.48 68.73 Q 346.48 70.73 344.48 70.73 L 338.77 70.28 Q 336.77 70.28 336.77 68.28 L 336.31 61.35 Q 336.31 59.35 338.31 59.35 Z"/><path class="water0" d="M 338.77 72.28 L 344.48 72.73 Q 346.48 72.73 346.48 74.73 L 345.79 80.51 Q 345.79 82.51 343.79 82.51 L 338.65 82.80 Q 336.65 82.80 336.65 80.80 L 336.77 74.28 Q 336.77 72.28 338.77 72.28 Z"/><path class="water0" d="M 349.81 -0.28 L 355.21 0.34 Q 357.21 0.34 357.21 2.34 L 357.43 8.79 Q 357.43 10.79 355.43 10.79 L 349.27 10.65 Q 347.27 10.65 347.27 8.65 L 347.81 1.72 Q 347.81 -0.28 349.81 -0.28 Z"/><path class="water0" d="M 349.27 12.65 L 355.43 12.79 Q 357.43 12.79 357.43 14.79 L 358.08 20.08 Q 358.08 22.08 356.08 22.08 L 349.29 22.63 Q 347.29 22.63 347.29 20.63 L 347.27 14.65 Q 347.27 12.65 349.27 12.65 Z"/><path class="water0" d="M 349.29 24.63 L 356.08 24.08 Q 358.08 24.08 358.08 26.08 L 358.67 31.26 Q 358.67 33.26 356.67 33.26 L 349.84 33.69 Q 347.84 33.69 347.84 31.69 L 347.29 26.63 Q 347.29 24.63 349.29 24.63 Z"/><path class="water1" d="M 349.84 35.69 L 356.67 35.26 Q 358.67 35.26 358.67 37.26 L 358.76 43.52 Q 358.76 45.52 356.76 45.52 L 350.52 45.21 Q 348.52 45.21 348.52 43.21 L 347.84 37.69 Q 347.84 35.69 349.84 35.69 Z"/><path class="water1" d="M 350.52 47.21 L 356.76 47.52 Q 358.76 47.52 358.76 49.52 L 358.27 56.49 Q 358.27 58.49 356.27 58.49 L 350.80 57.88 Q 348.80 57.88 348.80 55.88 L 348.52 49.21 Q 348.52 47.21 350.52 47.21 Z"/><path class="water1" d="M 350.80 59.88 L 356.27 60.49 Q 358.27 60.49 358.27 62.49 L 357.58 68.74 Q 357.58 70.74 355.58 70.74 L 350.48 70.73 Q 348.48 70.73 348.48 68.73 L 348.80 61.88 Q 348.80 59.88 350.80 59.88 Z"/><path class="water0" d="M 350.48 72.73 L 355.58 72.74 Q 357.58 72.74 357.58 74.74 L 357.20 79.91 Q 357.20 81.91 355.20 81.91 L 349.79 82.51 Q 347.79 82.51 347.79 80.51 L 348.48 74.73 Q 348.48 72.73 350.48 72.73 Z"/><path class="water0" d="M 361.21 0.34 L 367.62 0.76 Q 369.62 0.76 369.62 2.76 L 370.31 8.45 Q 370.31 10.45 368.31 10.45 L 361.43 10.79 Q 359.43 10.79 359.43 8.79 L 359.21 2.34 Q 359.21 0.34 361.21 0.34 Z"/><path class="water0" d="M 361.43 12.79 L 368.31 12.45 Q 370.31 12.45 370.31 14.45 L 370.77 19.49 Q 370.77 21.49 368.77 21.49 L 362.08 22.08 Q 360.08 22.08 360.08 20.08 L 359.43 14.79 Q 359.43 12.79 361.43 12.79 Z"/><path class="water1" d="M 362.08 24.08 L 368.77 23.49 Q 370.77 23.49 370.77 25.49 L 370.65 31.27 Q 370.65 33.27 368.65 33.27 L 362.67 33.26 Q 360.67 33.26 360.67 31.26 L 360.08 26.08 Q 360.08 24.08 362.08 24.08 Z"/><path class="water1" d="M 362.67 35.26 L 368.65 35.27 Q 370.65 35.27 370.65 37.27 L 370.03 44.12 Q 370.03 46.12 368.03 46.12 L 362.76 45.52 Q 360.76 45.52 360.76 43.52 L 360.67 37.26 Q 360.67 35.26 362.67 35.26 Z"/><path class="water1" d="M 362.76 47.52 L 368.03 48.12 Q 370.03 48.12 370.03 50.12 L 369.39 56.79 Q 369.39 58.79 367.39 58.79 L 362.27 58.49 Q 360.27 58.49 360.27 56.49 L 360.76 49.52 Q 360.76 47.52 362.76 47.52 Z"/><path class="water1" d="M 362.27 60.49 L 367.39 60.79 Q 369.39 60.79 369.39 62.79 L 369.21 68.30 Q 369.21 70.30 367.21 70.30 L 361.58 70.74 Q 359.58 70.74 359.58 68.74 L 360.27 62.49 Q 360.27 60.49 362.27 60.49 Z"/><path class="water0" d="M 361.58 72.74 L 367.21 72.30 Q 369.21 72.30 369.21 74.30 L 369.63 79.37 Q 369.63 81.37 367.63 81.37 L 361.20 81.91 Q 359.20 81.91 359.20 79.91 L 359.58 74.74 Q 359.58 72.74 361.58 72.74 Z"/><path class="water0" d="M 373.62 0.76 L 380.52 0.71 Q 382.52 0.71 382.52 2.71 L 382.80 7.84 Q 382.80 9.84 380.80 9.84 L 374.31 10.45 Q 372.31 10.45 372.31 8.45 L 371.62 2.76 Q 371.62 0.76 373.62 0.76 Z"/><path class="water1" d="M 374.31 12.45 L 380.80 11.84 Q 382.80 11.84 382.80 13.84 L 382.48 19.20 Q 382.48 21.20 380.48 21.20 L 374.77 21.49 Q 372.77 21.49 372.77 19.49 L 372.31 14.45 Q 372.31 12.45 374.31 12.45 Z"/><path class="water2" d="M 374.77 23.49 L 380.48 23.20 Q 382.48 23.20 382.48 25.20 L 381.79 31.73 Q 381.79 33.73 379.79 33.73 L 374.65 33.27 Q 372.65 33.27 372.65 31.27 L 372.77 25.49 Q 372.77 23.49 374.77 23.49 Z"/><path class="water2" d="M 374.65 35.27 L 379.79 35.73 Q 381.79 35.73 381.79 37.73 L 381.27 44.65 Q 381.27 46.65 379.27 46.65 L 374.03 46.12 Q 372.03 46.12 372.03 44.12 L 372.65 37.27 Q 372.65 35.27 374.65 35.27 Z"/><path class="water2" d="M 374.03 48.12 L 379.27 48.65 Q 381.27 48.65 381.27 50.65 L 381.29 56.62 Q 381.29 58.62 379.29 58.62 L 373.39 58.79 Q 371.39 58.79 371.39 56.79 L 372.03 50.12 Q 372.03 48.12 374.03 48.12 Z"/><path class="water2" d="M 373.39 60.79 L 379.29 60.62 Q 381.29 60.62 381.29 62.62 L 381.85 67.68 Q 381.85 69.68 379.85 69.68 L 373.21 70.30 Q 371.21 70.30 371.21 68.30 L 371.39 62.79 Q 371.39 60.79 373.39 60.79 Z"/><path class="water0" d="M 373.21 72.30 L 379.85 71.68 Q 381.85 71.68 381.85 73.68 L 382.53 79.21 Q 382.53 81.21 380.53 81.21 L 373.63 81.37 Q 371.63 81.37 371.63 79.37 L 371.21 74.30 Q 371.21 72.30 373.21 72.30 Z"/><path class="water0" d="M 386.52 0.71 L 392.76 0.24 Q 394.76 0.24 394.76 2.24 L 394.27 7.33 Q 394.27 9.33 392.27 9.33 L 386.80 9.84 Q 384.80 9.84 384.80 7.84 L 384.52 2.71 Q 384.52 0.71 386.52 0.71 Z"/><path class="water2" d="M 386.80 11.84 L 392.27 11.33 Q 394.27 11.33 394.27 13.33 L 393.58 19.40 Q 393.58 21.40 391.58 21.40 L 386.48 21.20 Q 384.48 21.20 384.48 19.20 L 384.80 13.84 Q 384.80 11.84 386.80 11.84 Z"/><path class="water1" d="M 386.48 23.20 L 391.58 23.40 Q 393.58 23.40 393.58 25.40 L 393.20 32.35 Q 393.20 34.35 391.20 34.35 L 385.79 33.73 Q 383.79 33.73 383.79 31.73 L 384.48 25.20 Q 384.48 23.20 386.48 23.20 Z"/><path class="water1" d="M 385.79 35.73 L 391.20 36.35 Q 393.20 36.35 393.20 38.35 L 393.44 44.79 Q 393.44 46.79 391.44 46.79 L 385.27 46.65 Q 383.27 46.65 383.27 44.65 L 383.79 37.73 Q 383.79 35.73 385.79 35.73 Z"/><path class="water1" d="M 385.27 48.65 L 391.44 48.79 Q 393.44 48.79 393.44 50.79 L 394.09 56.07 Q 394.09 58.07 392.09 58.07 L 385.29 58.62 Q 383.29 58.62 383.29 56.62 L 383.27 50.65 Q 383.27 48.65 385.27 48.65 Z"/><path class="water1" d="M 385.29 60.62 L 392.09 60.07 Q 394.09 60.07 394.09 62.07 L 394.68 67.25 Q 394.68 69.25 392.68 69.25 L 385.85 69.68 Q 383.85 69.68 383.85 67.68 L 383.29 62.62 Q 383.29 60.62 385.29 60.62 Z"/><path class="water0" d="M 385.85 71.68 L 392.68 71.25 Q 394.68 71.25 394.68 73.25 L 394.75 79.53 Q 394.75 81.53 392.75 81.53 L 386.53 81.21 Q 384.53 81.21 384.53 79.21 L 383.85 73.68 Q 383.85 71.68 385.85 71.68 Z"/><path class="water0" d="M 398.76 0.24 L 404.03 -0.38 Q 406.03 -0.38 406.03 1.62 L 405.39 7.22 Q 405.39 9.22 403.39 9.22 L 398.27 9.33 Q 396.27 9.33 396.27 7.33 L 396.76 2.24 Q 396.76 0.24 398.76 0.24 Z"/><path class="water1" d="M 398.27 11.33 L 403.39 11.22 Q 405.39 11.22 405.39 13.22 L 405.21 19.96 Q 405.21 21.96 403.21 21.96 L 397.58 21.40 Q 395.58 21.40 395.58 19.40 L 396.27 13.33 Q 396.27 11.33 398.27 11.33 Z"/><path class="water1" d="M 397.58 23.40 L 403.21 23.96 Q 405.21 23.96 405.21 25.96 L 405.63 32.76 Q 405.63 34.76 403.63 34.76 L 397.20 34.35 Q 395.20 34.35 395.20 32.35 L 395.58 25.40 Q 395.58 23.40 397.58 23.40 Z"/><path class="water1" d="M 397.20 36.35 L 403.63 36.76 Q 405.63 36.76 405.63 38.76 L 406.32 44.44 Q 406.32 46.44 404.32 46.44 L 397.44 46.79 Q 395.44 46.79 395.44 44.79 L 395.20 38.35 Q 395.20 36.35 397.20 36.35 Z"/><path class="water1" d="M 397.44 48.79 L 404.32 48.44 Q 406.32 48.44 406.32 50.44 L 406.77 55.48 Q 406.77 57.48 404.77 57.48 L 398.09 58.07 Q 396.09 58.07 396.09 56.07 L 395.44 50.79 Q 395.44 48.79 397.44 48.79 Z"/><path class="water1" d="M 398.09 60.07 L 404.77 59.48 Q 406.77 59.48 406.77 61.48 L 406.64 67.28 Q 406.64 69.28 404.64 69.28 L 398.68 69.25 Q 396.68 69.25 396.68 67.25 L 396.09 62.07 Q 396.09 60.07 398.09 60.07 Z"/><path class="water0" d="M 398.68 71.25 L 404.64 71.28 Q 406.64 71.28 406.64 73.28 L 406.02 80.14 Q 406.02 82.14 404.02 82.14 L 398.75 81.53 Q 396.75 81.53 396.75 79.53 L 396.68 73.25 Q 396.68 71.25 398.68 71.25 Z"/><path class="water0" d="M 410.03 -0.38 L 415.27 -0.77 Q 417.27 -0.77 417.27 1.23 L 417.29 7.59 Q 417.29 9.59 415.29 9.59 L 409.39 9.22 Q 407.39 9.22 407.39 7.22 L 408.03 1.62 Q 408.03 -0.38 410.03 -0.38 Z"/><path class="water1" d="M 409.39 11.22 L 415.29 11.59 Q 417.29 11.59 417.29 13.59 L 417.85 20.55 Q 417.85 22.55 415.85 22.55 L 409.21 21.96 Q 407.21 21.96 407.21 19.96 L 407.39 13.22 Q 407.39 11.22 409.39 11.22 Z"/><path class="water1" d="M 409.21 23.96 L 415.85 24.55 Q 417.85 24.55 417.85 26.55 L 418.53 32.71 Q 418.53 34.71 416.53 34.71 L 409.63 34.76 Q 407.63 34.76 407.63 32.76 L 407.21 25.96 Q 407.21 23.96 409.21 23.96 Z"/><path class="water1" d="M 409.63 36.76 L 416.53 36.71 Q 418.53 36.71 418.53 38.71 L 418.80 43.83 Q 418.80 45.83 416.80 45.83 L 410.32 46.44 Q 408.32 46.44 408.32 44.44 L 407.63 38.76 Q 407.63 36.76 409.63 36.76 Z"/><path class="water1" d="M 410.32 48.44 L 416.80 47.83 Q 418.80 47.83 418.80 49.83 L 418.47 55.20 Q 418.47 57.20 416.47 57.20 L 410.77 57.48 Q 408.77 57.48 408.77 55.48 L 408.32 50.44 Q 408.32 48.44 410.32 48.44 Z"/><path class="water1" d="M 410.77 59.48 L 416.47 59.20 Q 418.47 59.20 418.47 61.20 L 417.78 67.74 Q 417.78 69.74 415.78 69.74 L 410.64 69.28 Q 408.64 69.28 408.64 67.28 L 408.77 61.48 Q 408.77 59.48 410.77 59.48 Z"/><path class="water0" d="M 410.64 71.28 L 415.78 71.74 Q 417.78 71.74 417.78 73.74 L 417.26 80.66 Q 417.26 82.66 415.26 82.66 L 410.02 82.14 Q 408.02 82.14 408.02 80.14 L 408.64 73.28 Q 408.64 71.28 410.64 71.28 Z"/><path class="water0" d="M 421.27 -0.77 L 427.44 -0.69 Q 429.44 -0.69 429.44 1.31 L 430.09 8.20 Q 430.09 10.20 428.09 10.20 L 421.29 9.59 Q 419.29 9.59 419.29 7.59 L 419.27 1.23 Q 419.27 -0.77 421.27 -0.77 Z"/><path class="water0" d="M 421.29 11.59 L 428.09 12.20 Q 430.09 12.20 430.09 14.20 L 430.68 20.80 Q 430.68 22.80 428.68 22.80 L 421.85 22.55 Q 419.85 22.55 419.85 20.55 L 419.29 13.59 Q 419.29 11.59 421.29 11.59 Z"/><path class="water0" d="M 421.85 24.55 L 428.68 24.80 Q 430.68 24.80 430.68 26.80 L 430.75 32.23 Q 430.75 34.23 428.75 34.23 L 422.53 34.71 Q 420.53 34.71 420.53 32.71 L 419.85 26.55 Q 419.85 24.55 421.85 24.55 Z"/><path class="water0" d="M 422.53 36.71 L 428.75 36.23 Q 430.75 36.23 430.75 38.23 L 430.25 43.32 Q 430.25 45.32 428.25 45.32 L 422.80 45.83 Q 420.80 45.83 420.80 43.83 L 420.53 38.71 Q 420.53 36.71 422.53 36.71 Z"/><path class="water0" d="M 422.80 47.83 L 428.25 47.32 Q 430.25 47.32 430.25 49.32 L 429.56 55.41 Q 429.56 57.41 427.56 57.41 L 422.47 57.20 Q 420.47 57.20 420.47 55.20 L 420.80 49.83 Q 420.80 47.83 422.80 47.83 Z"/><path class="water0" d="M 422.47 59.20 L 427.56 59.41 Q 429.56 59.41 429.56 61.41 L 429.20 68.36 Q 429.20 70.36 427.20 70.36 L 421.78 69.74 Q 419.78 69.74 419.78 67.74 L 420.47 61.20 Q 420.47 59.20 422.47 59.20 Z"/><path class="water0" d="M 421.78 71.74 L 427.20 72.36 Q 429.20 72.36 429.20 74.36 L 429.45 80.78 Q 429.45 82.78 427.45 82.78 L 421.26 82.66 Q 419.26 82.66 419.26 80.66 L 419.78 73.74 Q 419.78 71.74 421.78 71.74 Z"/><path class="water0" d="M 433.44 -0.69 L 440.32 -0.19 Q 442.32 -0.19 442.32 1.81 L 442.77 8.70 Q 442.77 10.70 440.77 10.70 L 434.09 10.20 Q 432.09 10.20 432.09 8.20 L 431.44 1.31 Q 431.44 -0.69 433.44 -0.69 Z"/><path class="water1" d="M 434.09 12.20 L 440.77 12.70 Q 442.77 12.70 442.77 14.70 L 442.64 20.57 Q 442.64 22.57 440.64 22.57 L 434.68 22.80 Q 432.68 22.80 432.68 20.80 L 432.09 14.20 Q 432.09 12.20 434.09 12.20 Z"/><path class="water2" d="M 434.68 24.80 L 440.64 24.57 Q 442.64 24.57 442.64 26.57 L 442.02 31.61 Q 442.02 33.61 440.02 33.61 L 434.75 34.23 Q 432.75 34.23 432.75 32.23 L 432.68 26.80 Q 432.68 24.80 434.68 24.80 Z"/><path class="water1" d="M 434.75 36.23 L 440.02 35.61 Q 442.02 35.61 442.02 37.61 L 441.39 43.22 Q 441.39 45.22 439.39 45.22 L 434.25 45.32 Q 432.25 45.32 432.25 43.32 L 432.75 38.23 Q 432.75 36.23 434.75 36.23 Z"/><path class="water2" d="M 434.25 47.32 L 439.39 47.22 Q 441.39 47.22 441.39 49.22 L 441.22 55.98 Q 441.22 57.98 439.22 57.98 L 433.56 57.41 Q 431.56 57.41 431.56 55.41 L 432.25 49.32 Q 432.25 47.32 434.25 47.32 Z"/><path class="water1" d="M 433.56 59.41 L 439.22 59.98 Q 441.22 59.98 441.22 61.98 L 441.64 68.76 Q 441.64 70.76 439.64 70.76 L 433.20 70.36 Q 431.20 70.36 431.20 68.36 L 431.56 61.41 Q 431.56 59.41 433.56 59.41 Z"/><path class="water0" d="M 433.20 72.36 L 439.64 72.76 Q 441.64 72.76 441.64 74.76 L 442.34 80.43 Q 442.34 82.43 440.34 82.43 L 433.45 82.78 Q 431.45 82.78 431.45 80.78 L 431.20 74.36 Q 431.20 72.36 433.20 72.36 Z"/><path class="water0" d="M 446.32 -0.19 L 452.80 0.42 Q 454.80 0.42 454.80 2.42 L 454.47 8.77 Q 454.47 10.77 452.47 10.77 L 446.77 10.70 Q 444.77 10.70 444.77 8.70 L 444.32 1.81 Q 444.32 -0.19 446.32 -0.19 Z"/><path class="water0" d="M 446.77 12.70 L 452.47 12.77 Q 454.47 12.77 454.47 14.77 L 453.78 19.99 Q 453.78 21.99 451.78 21.99 L 446.64 22.57 Q 444.64 22.57 444.64 20.57 L 444.77 14.70 Q 444.77 12.70 446.77 12.70 Z"/><path class="water1" d="M 446.64 24.57 L 451.78 23.99 Q 453.78 23.99 453.78 25.99 L 453.26 31.23 Q 453.26 33.23 451.26 33.23 L 446.02 33.61 Q 444.02 33.61 444.02 31.61 L 444.64 26.57 Q 444.64 24.57 446.64 24.57 Z"/><path class="water1" d="M 446.02 35.61 L 451.26 35.23 Q 453.26 35.23 453.26 37.23 L 453.30 43.60 Q 453.30 45.60 451.30 45.60 L 445.39 45.22 Q 443.39 45.22 443.39 43.22 L 444.02 37.61 Q 444.02 35.61 446.02 35.61 Z"/><path class="water2" d="M 445.39 47.22 L 451.30 47.60 Q 453.30 47.60 453.30 49.60 L 453.87 56.56 Q 453.87 58.56 451.87 58.56 L 445.22 57.98 Q 443.22 57.98 443.22 55.98 L 443.39 49.22 Q 443.39 47.22 445.39 47.22 Z"/><path class="water1" d="M 445.22 59.98 L 451.87 60.56 Q 453.87 60.56 453.87 62.56 L 454.54 68.70 Q 454.54 70.70 452.54 70.70 L 445.64 70.76 Q 443.64 70.76 443.64 68.76 L 443.22 61.98 Q 443.22 59.98 445.22 59.98 Z"/><path class="water0" d="M 445.64 72.76 L 452.54 72.70 Q 454.54 72.70 454.54 74.70 L 454.80 79.82 Q 454.80 81.82 452.80 81.82 L 446.34 82.43 Q 444.34 82.43 444.34 80.43 L 443.64 74.76 Q 443.64 72.76 445.64 72.76 Z"/><path class="water0" d="M 458.80 0.42 L 464.25 0.78 Q 466.25 0.78 466.25 2.78 L 465.56 8.37 Q 465.56 10.37 463.56 10.37 L 458.47 10.77 Q 456.47 10.77 456.47 8.77 L 456.80 2.42 Q 456.80 0.42 458.80 0.42 Z"/><path class="water2" d="M 458.47 12.77 L 463.56 12.37 Q 465.56 12.37 465.56 14.37 L 465.20 19.42 Q 465.20 21.42 463.20 21.42 L 457.78 21.99 Q 455.78 21.99 455.78 19.99 L 456.47 14.77 Q 456.47 12.77 458.47 12.77 Z"/><path class="water1" d="M 457.78 23.99 L 463.20 23.42 Q 465.20 23.42 465.20 25.42 L 465.45 31.31 Q 465.45 33.31 463.45 33.31 L 457.26 33.23 Q 455.26 33.23 455.26 31.23 L 455.78 25.99 Q 455.78 23.99 457.78 23.99 Z"/><path class="water1" d="M 457.26 35.23 L 463.45 35.31 Q 465.45 35.31 465.45 37.31 L 466.11 44.21 Q 466.11 46.21 464.11 46.21 L 457.30 45.60 Q 455.30 45.60 455.30 43.60 L 455.26 37.23 Q 455.26 35.23 457.26 35.23 Z"/><path class="water2" d="M 457.30 47.60 L 464.11 48.21 Q 466.11 48.21 466.11 50.21 L 466.69 56.80 Q 466.69 58.80 464.69 58.80 L 457.87 58.56 Q 455.87 58.56 455.87 56.56 L 455.30 49.60 Q 455.30 47.60 457.30 47.60 Z"/><path class="water1" d="M 457.87 60.56 L 464.69 60.80 Q 466.69 60.80 466.69 62.80 L 466.75 68.21 Q 466.75 70.21 464.75 70.21 L 458.54 70.70 Q 456.54 70.70 456.54 68.70 L 455.87 62.56 Q 455.87 60.56 457.87 60.56 Z"/><path class="water0" d="M 458.54 72.70 L 464.75 72.21 Q 466.75 72.21 466.75 74.21 L 466.24 79.31 Q 466.24 81.31 464.24 81.31 L 458.80 81.82 Q 456.80 81.82 456.80 79.82 L 456.54 74.70 Q 456.54 72.70 458.54 72.70 Z"/><path class="water0" d="M 470.25 0.78 L 475.39 0.67 Q 477.39 0.67 477.39 2.67 L 477.22 7.75 Q 477.22 9.75 475.22 9.75 L 469.56 10.37 Q 467.56 10.37 467.56 8.37 L 468.25 2.78 Q 468.25 0.78 470.25 0.78 Z"/><path class="water1" d="M 469.56 12.37 L 475.22 11.75 Q 477.22 11.75 477.22 13.75 L 477.64 19.20 Q 477.64 21.20 475.64 21.20 L 469.20 21.42 Q 467.20 21.42 467.20 19.42 L 467.56 14.37 Q 467.56 12.37 469.56 12.37 Z"/><path class="water1" d="M 469.20 23.42 L 475.64 23.20 Q 477.64 23.20 477.64 25.20 L 478.34 31.82 Q 478.34 33.82 476.34 33.82 L 469.45 33.31 Q 467.45 33.31 467.45 31.31 L 467.20 25.42 Q 467.20 23.42 469.20 23.42 Z"/><path class="water1" d="M 469.45 35.31 L 476.34 35.82 Q 478.34 35.82 478.34 37.82 L 478.78 44.70 Q 478.78 46.70 476.78 46.70 L 470.11 46.21 Q 468.11 46.21 468.11 44.21 L 467.45 37.31 Q 467.45 35.31 469.45 35.31 Z"/><path class="water1" d="M 470.11 48.21 L 476.78 48.70 Q 478.78 48.70 478.78 50.70 L 478.63 56.56 Q 478.63 58.56 476.63 58.56 L 470.69 58.80 Q 468.69 58.80 468.69 56.80 L 468.11 50.21 Q 468.11 48.21 470.11 48.21 Z"/><path class="water1" d="M 470.69 60.80 L 476.63 60.56 Q 478.63 60.56 478.63 62.56 L 478.01 67.60 Q 478.01 69.60 476.01 69.60 L 470.75 70.21 Q 468.75 70.21 468.75 68.21 L 468.69 62.80 Q 468.69 60.80 470.69 60.80 Z"/><path class="water0" d="M 470.75 72.21 L 476.01 71.60 Q 478.01 71.60 478.01 73.60 L 477.38 79.23 Q 477.38 81.23 475.38 81.23 L 470.24 81.31 Q 468.24 81.31 468.24 79.31 L 468.75 74.21 Q 468.75 72.21 470.75 72.21 Z"/><path class="water0" d="M 481.39 0.67 L 487.30 0.15 Q 489.30 0.15 489.30 2.15 L 489.87 7.28 Q 489.87 9.28 487.87 9.28 L 481.22 9.75 Q 479.22 9.75 479.22 7.75 L 479.39 2.67 Q 479.39 0.67 481.39 0.67 Z"/><path class="water0" d="M 481.22 11.75 L 487.87 11.28 Q 489.87 11.28 489.87 13.28 L 490.54 19.47 Q 490.54 21.47 488.54 21.47 L 481.64 21.20 Q 479.64 21.20 479.64 19.20 L 479.22 13.75 Q 479.22 11.75 481.22 11.75 Z"/><path class="water0" d="M 481.64 23.20 L 488.54 23.47 Q 490.54 23.47 490.54 25.47 L 490.80 32.43 Q 490.80 34.43 488.80 34.43 L 482.34 33.82 Q 480.34 33.82 480.34 31.82 L 479.64 25.20 Q 479.64 23.20 481.64 23.20 Z"/><path class="water0" d="M 482.34 35.82 L 488.80 36.43 Q 490.80 36.43 490.80 38.43 L 490.46 44.76 Q 490.46 46.76 488.46 46.76 L 482.78 46.70 Q 480.78 46.70 480.78 44.70 L 480.34 37.82 Q 480.34 35.82 482.34 35.82 Z"/><path class="water0" d="M 482.78 48.70 L 488.46 48.76 Q 490.46 48.76 490.46 50.76 L 489.77 55.98 Q 489.77 57.98 487.77 57.98 L 482.63 58.56 Q 480.63 58.56 480.63 56.56 L 480.78 50.70 Q 480.78 48.70 482.78 48.70 Z"/><path class="water1" d="M 482.63 60.56 L 487.77 59.98 Q 489.77 59.98 489.77 61.98 L 489.26 67.22 Q 489.26 69.22 487.26 69.22 L 482.01 69.60 Q 480.01 69.60 480.01 67.60 L 480.63 62.56 Q 480.63 60.56 482.63 60.56 Z"/><path class="water0" d="M 482.01 71.60 L 487.26 71.22 Q 489.26 71.22 489.26 73.22 L 489.31 79.61 Q 489.31 81.61 487.31 81.61 L 481.38 81.23 Q 479.38 81.23 479.38 79.23 L 480.01 73.60 Q 480.01 71.60 482.01 71.60 Z"/><path class="water1" d="M 493.30 0.15 L 500.11 -0.46 Q 502.11 -0.46 502.11 1.54 L 502.69 7.25 Q 502.69 9.25 500.69 9.25 L 493.87 9.28 Q 491.87 9.28 491.87 7.28 L 491.30 2.15 Q 491.30 0.15 493.30 0.15 Z"/><path class="water1" d="M 493.87 11.28 L 500.69 11.25 Q 502.69 11.25 502.69 13.25 L 502.75 20.06 Q 502.75 22.06 500.75 22.06 L 494.54 21.47 Q 492.54 21.47 492.54 19.47 L 491.87 13.28 Q 491.87 11.28 493.87 11.28 Z"/><path class="water0" d="M 494.54 23.47 L 500.75 24.06 Q 502.75 24.06 502.75 26.06 L 502.24 32.78 Q 502.24 34.78 500.24 34.78 L 494.80 34.43 Q 492.80 34.43 492.80 32.43 L 492.54 25.47 Q 492.54 23.47 494.54 23.47 Z"/><path class="water0" d="M 494.80 36.43 L 500.24 36.78 Q 502.24 36.78 502.24 38.78 L 501.55 44.36 Q 501.55 46.36 499.55 46.36 L 494.46 46.76 Q 492.46 46.76 492.46 44.76 L 492.80 38.43 Q 492.80 36.43 494.80 36.43 Z"/><path class="water0" d="M 494.46 48.76 L 499.55 48.36 Q 501.55 48.36 501.55 50.36 L 501.20 55.41 Q 501.20 57.41 499.20 57.41 L 493.77 57.98 Q 491.77 57.98 491.77 55.98 L 492.46 50.76 Q 492.46 48.76 494.46 48.76 Z"/><path class="water0" d="M 493.77 59.98 L 499.20 59.41 Q 501.20 59.41 501.20 61.41 L 501.46 67.32 Q 501.46 69.32 499.46 69.32 L 493.26 69.22 Q 491.26 69.22 491.26 67.22 L 491.77 61.98 Q 491.77 59.98 493.77 59.98 Z"/><path class="water0" d="M 493.26 71.22 L 499.46 71.32 Q 501.46 71.32 501.46 73.32 L 502.12 80.23 Q 502.12 82.23 500.12 82.23 L 493.31 81.61 Q 491.31 81.61 491.31 79.61 L 491.26 73.22 Q 491.26 71.22 493.26 71.22 Z"/><path class="water0" d="M 506.11 -0.46 L 512.78 -0.79 Q 514.78 -0.79 514.78 1.21 L 514.63 7.67 Q 514.63 9.67 512.63 9.67 L 506.69 9.25 Q 504.69 9.25 504.69 7.25 L 504.11 1.54 Q 504.11 -0.46 506.11 -0.46 Z"/><path class="water4" d="M 506.69 11.25 L 512.63 11.67 Q 514.63 11.67 514.63 13.67 L 514.01 20.61 Q 514.01 22.61 512.01 22.61 L 506.75 22.06 Q 504.75 22.06 504.75 20.06 L 504.69 13.25 Q 504.69 11.25 506.69 11.25 Z"/><path class="water0" d="M 506.75 24.06 L 512.01 24.61 Q 514.01 24.61 514.01 26.61 L 513.38 32.66 Q 513.38 34.66 511.38 34.66 L 506.24 34.78 Q 504.24 34.78 504.24 32.78 L 504.75 26.06 Q 504.75 24.06 506.75 24.06 Z"/><path class="water0" d="M 506.24 36.78 L 511.38 36.66 Q 513.38 36.66 513.38 38.66 L 513.22 43.74 Q 513.22 45.74 511.22 45.74 L 505.55 46.36 Q 503.55 46.36 503.55 44.36 L 504.24 38.78 Q 504.24 36.78 506.24 36.78 Z"/><path class="water4" d="M 505.55 48.36 L 511.22 47.74 Q 513.22 47.74 513.22 49.74 L 513.65 55.20 Q 513.65 57.20 511.65 57.20 L 505.20 57.41 Q 503.20 57.41 503.20 55.41 L 503.55 50.36 Q 503.55 48.36 505.55 48.36 Z"/><path class="water4" d="M 505.20 59.41 L 511.65 59.20 Q 513.65 59.20 513.65 61.20 L 514.35 67.83 Q 514.35 69.83 512.35 69.83 L 505.46 69.32 Q 503.46 69.32 503.46 67.32 L 503.20 61.41 Q 503.20 59.41 505.20 59.41 Z"/><path class="water1" d="M 505.46 71.32 L 512.35 71.83 Q 514.35 71.83 514.35 73.83 L 514.78 80.71 Q 514.78 82.71 512.78 82.71 L 506.12 82.23 Q 504.12 82.23 504.12 80.23 L 503.46 73.32 Q 503.46 71.32 505.46 71.32 Z"/><path class="water0" d="M 518.78 -0.79 L 524.46 -0.64 Q 526.46 -0.64 526.46 1.36 L 525.77 8.29 Q 525.77 10.29 523.77 10.29 L 518.63 9.67 Q 516.63 9.67 516.63 7.67 L 516.78 1.21 Q 516.78 -0.79 518.78 -0.79 Z"/><path class="water1" d="M 518.63 11.67 L 523.77 12.29 Q 525.77 12.29 525.77 14.29 L 525.26 20.80 Q 525.26 22.80 523.26 22.80 L 518.01 22.61 Q 516.01 22.61 516.01 20.61 L 516.63 13.67 Q 516.63 11.67 518.63 11.67 Z"/><path class="water3" d="M 518.01 24.61 L 523.26 24.80 Q 525.26 24.80 525.26 26.80 L 525.31 32.14 Q 525.31 34.14 523.31 34.14 L 517.38 34.66 Q 515.38 34.66 515.38 32.66 L 516.01 26.61 Q 516.01 24.61 518.01 24.61 Z"/><path class="water4" d="M 517.38 36.66 L 523.31 36.14 Q 525.31 36.14 525.31 38.14 L 525.88 43.28 Q 525.88 45.28 523.88 45.28 L 517.22 45.74 Q 515.22 45.74 515.22 43.74 L 515.38 38.66 Q 515.38 36.66 517.38 36.66 Z"/><path class="water2" d="M 517.22 47.74 L 523.88 47.28 Q 525.88 47.28 525.88 49.28 L 526.55 55.48 Q 526.55 57.48 524.55 57.48 L 517.65 57.20 Q 515.65 57.20 515.65 55.20 L 515.22 49.74 Q 515.22 47.74 517.22 47.74 Z"/><path class="water3" d="M 517.65 59.20 L 524.55 59.48 Q 526.55 59.48 526.55 61.48 L 526.80 68.44 Q 526.80 70.44 524.80 70.44 L 518.35 69.83 Q 516.35 69.83 516.35 67.83 L 515.65 61.20 Q 515.65 59.20 517.65 59.20 Z"/><path class="water1" d="M 518.35 71.83 L 524.80 72.44 Q 526.80 72.44 526.80 74.44 L 526.45 80.76 Q 526.45 82.76 524.45 82.76 L 518.78 82.71 Q 516.78 82.71 516.78 80.71 L 516.35 73.83 Q 516.35 71.83 518.35 71.83 Z"/><path class="water0" d="M 530.46 -0.64 L 535.55 -0.10 Q 537.55 -0.10 537.55 1.90 L 537.20 8.74 Q 537.20 10.74 535.20 10.74 L 529.77 10.29 Q 527.77 10.29 527.77 8.29 L 528.46 1.36 Q 528.46 -0.64 530.46 -0.64 Z"/><path class="water0" d="M 529.77 12.29 L 535.20 12.74 Q 537.20 12.74 537.20 14.74 L 537.46 20.50 Q 537.46 22.50 535.46 22.50 L 529.26 22.80 Q 527.26 22.80 527.26 20.80 L 527.77 14.29 Q 527.77 12.29 529.77 12.29 Z"/><path class="water1" d="M 529.26 24.80 L 535.46 24.50 Q 537.46 24.50 537.46 26.50 L 538.12 31.53 Q 538.12 33.53 536.12 33.53 L 529.31 34.14 Q 527.31 34.14 527.31 32.14 L 527.26 26.80 Q 527.26 24.80 529.26 24.80 Z"/><path class="water1" d="M 529.31 36.14 L 536.12 35.53 Q 538.12 35.53 538.12 37.53 L 538.69 43.25 Q 538.69 45.25 536.69 45.25 L 529.88 45.28 Q 527.88 45.28 527.88 43.28 L 527.31 38.14 Q 527.31 36.14 529.31 36.14 Z"/><path class="water0" d="M 529.88 47.28 L 536.69 47.25 Q 538.69 47.25 538.69 49.25 L 538.74 56.07 Q 538.74 58.07 536.74 58.07 L 530.55 57.48 Q 528.55 57.48 528.55 55.48 L 527.88 49.28 Q 527.88 47.28 529.88 47.28 Z"/><path class="water3" d="M 530.55 59.48 L 536.74 60.07 Q 538.74 60.07 538.74 62.07 L 538.23 68.79 Q 538.23 70.79 536.23 70.79 L 530.80 70.44 Q 528.80 70.44 528.80 68.44 L 528.55 61.48 Q 528.55 59.48 530.55 59.48 Z"/><path class="water1" d="M 530.80 72.44 L 536.23 72.79 Q 538.23 72.79 538.23 74.79 L 537.54 80.35 Q 537.54 82.35 535.54 82.35 L 530.45 82.76 Q 528.45 82.76 528.45 80.76 L 528.80 74.44 Q 528.80 72.44 530.80 72.44 Z"/><path class="water4" d="M 541.55 -0.10 L 547.22 0.50 Q 549.22 0.50 549.22 2.50 L 549.65 8.74 Q 549.65 10.74 547.65 10.74 L 541.20 10.74 Q 539.20 10.74 539.20 8.74 L 539.55 1.90 Q 539.55 -0.10 541.55 -0.10 Z"/><path class="water0" d="M 541.20 12.74 L 547.65 12.74 Q 549.65 12.74 549.65 14.74 L 550.35 19.90 Q 550.35 21.90 548.35 21.90 L 541.46 22.50 Q 539.46 22.50 539.46 20.50 L 539.20 14.74 Q 539.20 12.74 541.20 12.74 Z"/><path class="water1" d="M 541.46 24.50 L 548.35 23.90 Q 550.35 23.90 550.35 25.90 L 550.78 31.21 Q 550.78 33.21 548.78 33.21 L 542.12 33.53 Q 540.12 33.53 540.12 31.53 L 539.46 26.50 Q 539.46 24.50 541.46 24.50 Z"/><path class="water0" d="M 542.12 35.53 L 548.78 35.21 Q 550.78 35.21 550.78 37.21 L 550.62 43.68 Q 550.62 45.68 548.62 45.68 L 542.69 45.25 Q 540.69 45.25 540.69 43.25 L 540.12 37.53 Q 540.12 35.53 542.12 35.53 Z"/><path class="water1" d="M 542.69 47.25 L 548.62 47.68 Q 550.62 47.68 550.62 49.68 L 549.99 56.62 Q 549.99 58.62 547.99 58.62 L 542.74 58.07 Q 540.74 58.07 540.74 56.07 L 540.69 49.25 Q 540.69 47.25 542.69 47.25 Z"/><path class="water2" d="M 542.74 60.07 L 547.99 60.62 Q 549.99 60.62 549.99 62.62 L 549.37 68.65 Q 549.37 70.65 547.37 70.65 L 542.23 70.79 Q 540.23 70.79 540.23 68.79 L 540.74 62.07 Q 540.74 60.07 542.74 60.07 Z"/><path class="water1" d="M 542.23 72.79 L 547.37 72.65 Q 549.37 72.65 549.37 74.65 L 549.22 79.73 Q 549.22 81.73 547.22 81.73 L 541.54 82.35 Q 539.54 82.35 539.54 80.35 L 540.23 74.79 Q 540.23 72.79 542.23 72.79 Z"/><path class="water1" d="M 553.22 0.50 L 559.88 0.80 Q 561.88 0.80 561.88 2.80 L 562.55 8.29 Q 562.55 10.29 560.55 10.29 L 553.65 10.74 Q 551.65 10.74 551.65 8.74 L 551.22 2.50 Q 551.22 0.50 553.22 0.50 Z"/><path class="water1" d="M 553.65 12.74 L 560.55 12.29 Q 562.55 12.29 562.55 14.29 L 562.80 19.36 Q 562.80 21.36 560.80 21.36 L 554.35 21.90 Q 552.35 21.90 552.35 19.90 L 551.65 14.74 Q 551.65 12.74 553.65 12.74 Z"/><path class="water1" d="M 554.35 23.90 L 560.80 23.36 Q 562.80 23.36 562.80 25.36 L 562.45 31.37 Q 562.45 33.37 560.45 33.37 L 554.78 33.21 Q 552.78 33.21 552.78 31.21 L 552.35 25.90 Q 552.35 23.90 554.35 23.90 Z"/><path class="water0" d="M 554.78 35.21 L 560.45 35.37 Q 562.45 35.37 562.45 37.37 L 561.76 44.30 Q 561.76 46.30 559.76 46.30 L 554.62 45.68 Q 552.62 45.68 552.62 43.68 L 552.78 37.21 Q 552.78 35.21 554.78 35.21 Z"/><path class="water1" d="M 554.62 47.68 L 559.76 48.30 Q 561.76 48.30 561.76 50.30 L 561.25 56.79 Q 561.25 58.79 559.25 58.79 L 553.99 58.62 Q 551.99 58.62 551.99 56.62 L 552.62 49.68 Q 552.62 47.68 554.62 47.68 Z"/><path class="water1" d="M 553.99 60.62 L 559.25 60.79 Q 561.25 60.79 561.25 62.79 L 561.31 68.12 Q 561.31 70.12 559.31 70.12 L 553.37 70.65 Q 551.37 70.65 551.37 68.65 L 551.99 62.62 Q 551.99 60.62 553.99 60.62 Z"/><path class="water0" d="M 553.37 72.65 L 559.31 72.12 Q 561.31 72.12 561.31 74.12 L 561.89 79.27 Q 561.89 81.27 559.89 81.27 L 553.22 81.73 Q 551.22 81.73 551.22 79.73 L 551.37 74.65 Q 551.37 72.65 553.37 72.65 Z"/><path class="water1" d="M 565.88 0.80 L 572.69 0.61 Q 574.69 0.61 574.69 2.61 L 574.74 7.67 Q 574.74 9.67 572.74 9.67 L 566.55 10.29 Q 564.55 10.29 564.55 8.29 L 563.88 2.80 Q 563.88 0.80 565.88 0.80 Z"/><path class="water0" d="M 566.55 12.29 L 572.74 11.67 Q 574.74 11.67 574.74 13.67 L 574.23 19.21 Q 574.23 21.21 572.23 21.21 L 566.80 21.36 Q 564.80 21.36 564.80 19.36 L 564.55 14.29 Q 564.55 12.29 566.55 12.29 Z"/><path class="water0" d="M 566.80 23.36 L 572.23 23.21 Q 574.23 23.21 574.23 25.21 L 573.54 31.91 Q 573.54 33.91 571.54 33.91 L 566.45 33.37 Q 564.45 33.37 564.45 31.37 L 564.80 25.36 Q 564.80 23.36 566.80 23.36 Z"/><path class="water0" d="M 566.45 35.37 L 571.54 35.91 Q 573.54 35.91 573.54 37.91 L 573.20 44.74 Q 573.20 46.74 571.20 46.74 L 565.76 46.30 Q 563.76 46.30 563.76 44.30 L 564.45 37.37 Q 564.45 35.37 566.45 35.37 Z"/><path class="water0" d="M 565.76 48.30 L 571.20 48.74 Q 573.20 48.74 573.20 50.74 L 573.47 56.49 Q 573.47 58.49 571.47 58.49 L 565.25 58.79 Q 563.25 58.79 563.25 56.79 L 563.76 50.30 Q 563.76 48.30 565.76 48.30 Z"/><path class="water0" d="M 565.25 60.79 L 571.47 60.49 Q 573.47 60.49 573.47 62.49 L 574.13 67.52 Q 574.13 69.52 572.13 69.52 L 565.31 70.12 Q 563.31 70.12 563.31 68.12 L 563.25 62.79 Q 563.25 60.79 565.25 60.79 Z"/><path class="water0" d="M 565.31 72.12 L 572.13 71.52 Q 574.13 71.52 574.13 73.52 L 574.70 79.26 Q 574.70 81.26 572.70 81.26 L 565.89 81.27 Q 563.89 81.27 563.89 79.27 L 563.31 74.12 Q 563.31 72.12 565.31 72.12 Z"/><path class="water0" d="M 578.69 0.61 L 584.62 0.06 Q 586.62 0.06 586.62 2.06 L 585.99 7.25 Q 585.99 9.25 583.99 9.25 L 578.74 9.67 Q 576.74 9.67 576.74 7.67 L 576.69 2.61 Q 576.69 0.61 578.69 0.61 Z"/><path class="water0" d="M 578.74 11.67 L 583.99 11.25 Q 585.99 11.25 585.99 13.25 L 585.37 19.54 Q 585.37 21.54 583.37 21.54 L 578.23 21.21 Q 576.23 21.21 576.23 19.21 L 576.74 13.67 Q 576.74 11.67 578.74 11.67 Z"/><path class="water0" d="M 578.23 23.21 L 583.37 23.54 Q 585.37 23.54 585.37 25.54 L 585.22 32.51 Q 585.22 34.51 583.22 34.51 L 577.54 33.91 Q 575.54 33.91 575.54 31.91 L 576.23 25.21 Q 576.23 23.21 578.23 23.21 Z"/><path class="water0" d="M 577.54 35.91 L 583.22 36.51 Q 585.22 36.51 585.22 38.51 L 585.67 44.73 Q 585.67 46.73 583.67 46.73 L 577.20 46.74 Q 575.20 46.74 575.20 44.74 L 575.54 37.91 Q 575.54 35.91 577.54 35.91 Z"/><path class="water0" d="M 577.20 48.74 L 583.67 48.73 Q 585.67 48.73 585.67 50.73 L 586.36 55.88 Q 586.36 57.88 584.36 57.88 L 577.47 58.49 Q 575.47 58.49 575.47 56.49 L 575.20 50.74 Q 575.20 48.74 577.20 48.74 Z"/><path class="water0" d="M 577.47 60.49 L 584.36 59.88 Q 586.36 59.88 586.36 61.88 L 586.78 67.21 Q 586.78 69.21 584.78 69.21 L 578.13 69.52 Q 576.13 69.52 576.13 67.52 L 575.47 62.49 Q 575.47 60.49 577.47 60.49 Z"/><path class="water0" d="M 578.13 71.52 L 584.78 71.21 Q 586.78 71.21 586.78 73.21 L 586.61 79.69 Q 586.61 81.69 584.61 81.69 L 578.70 81.26 Q 576.70 81.26 576.70 79.26 L 576.13 73.52 Q 576.13 71.52 578.13 71.52 Z"/><path class="water0" d="M 590.62 0.06 L 595.76 -0.53 Q 597.76 -0.53 597.76 1.47 L 597.25 7.28 Q 597.25 9.28 595.25 9.28 L 589.99 9.25 Q 587.99 9.25 587.99 7.25 L 588.62 2.06 Q 588.62 0.06 590.62 0.06 Z"/><path class="water0" d="M 589.99 11.25 L 595.25 11.28 Q 597.25 11.28 597.25 13.28 L 597.31 20.15 Q 597.31 22.15 595.31 22.15 L 589.37 21.54 Q 587.37 21.54 587.37 19.54 L 587.99 13.25 Q 587.99 11.25 589.99 11.25 Z"/><path class="water0" d="M 589.37 23.54 L 595.31 24.15 Q 597.31 24.15 597.31 26.15 L 597.89 32.80 Q 597.89 34.80 595.89 34.80 L 589.22 34.51 Q 587.22 34.51 587.22 32.51 L 587.37 25.54 Q 587.37 23.54 589.37 23.54 Z"/><path class="water0" d="M 589.22 36.51 L 595.89 36.80 Q 597.89 36.80 597.89 38.80 L 598.56 44.28 Q 598.56 46.28 596.56 46.28 L 589.67 46.73 Q 587.67 46.73 587.67 44.73 L 587.22 38.51 Q 587.22 36.51 589.22 36.51 Z"/><path class="water0" d="M 589.67 48.73 L 596.56 48.28 Q 598.56 48.28 598.56 50.28 L 598.80 55.35 Q 598.80 57.35 596.80 57.35 L 590.36 57.88 Q 588.36 57.88 588.36 55.88 L 587.67 50.73 Q 587.67 48.73 589.67 48.73 Z"/><path class="water0" d="M 590.36 59.88 L 596.80 59.35 Q 598.80 59.35 598.80 61.35 L 598.43 67.38 Q 598.43 69.38 596.43 69.38 L 590.78 69.21 Q 588.78 69.21 588.78 67.21 L 588.36 61.88 Q 588.36 59.88 590.36 59.88 Z"/><path class="water0" d="M 590.78 71.21 L 596.43 71.38 Q 598.43 71.38 598.43 73.38 L 597.74 80.32 Q 597.74 82.32 595.74 82.32 L 590.61 81.69 Q 588.61 81.69 588.61 79.69 L 588.78 73.21 Q 588.78 71.21 590.78 71.21 Z"/><path class="water0" d="M 601.76 -0.53 L 607.20 -0.80 Q 609.20 -0.80 609.20 1.20 L 609.47 7.75 Q 609.47 9.75 607.47 9.75 L 601.25 9.28 Q 599.25 9.28 599.25 7.28 L 599.76 1.47 Q 599.76 -0.53 601.76 -0.53 Z"/><path class="water0" d="M 601.25 11.28 L 607.47 11.75 Q 609.47 11.75 609.47 13.75 L 610.13 20.67 Q 610.13 22.67 608.13 22.67 L 601.31 22.15 Q 599.31 22.15 599.31 20.15 L 599.25 13.28 Q 599.25 11.28 601.25 11.28 Z"/><path class="water0" d="M 601.31 24.15 L 608.13 24.67 Q 610.13 24.67 610.13 26.67 L 610.70 32.60 Q 610.70 34.60 608.70 34.60 L 601.89 34.80 Q 599.89 34.80 599.89 32.80 L 599.31 26.15 Q 599.31 24.15 601.31 24.15 Z"/><path class="water0" d="M 601.89 36.80 L 608.70 36.60 Q 610.70 36.60 610.70 38.60 L 610.74 43.65 Q 610.74 45.65 608.74 45.65 L 602.56 46.28 Q 600.56 46.28 600.56 44.28 L 599.89 38.80 Q 599.89 36.80 601.89 36.80 Z"/><path class="water0" d="M 602.56 48.28 L 608.74 47.65 Q 610.74 47.65 610.74 49.65 L 610.22 55.21 Q 610.22 57.21 608.22 57.21 L 602.80 57.35 Q 600.80 57.35 600.80 55.35 L 600.56 50.28 Q 600.56 48.28 602.56 48.28 Z"/><path class="water0" d="M 602.80 59.35 L 608.22 59.21 Q 610.22 59.21 610.22 61.21 L 609.53 67.92 Q 609.53 69.92 607.53 69.92 L 602.43 69.38 Q 600.43 69.38 600.43 67.38 L 600.80 61.35 Q 600.80 59.35 602.80 59.35 Z"/><path class="water0" d="M 602.43 71.38 L 607.53 71.92 Q 609.53 71.92 609.53 73.92 L 609.20 80.75 Q 609.20 82.75 607.20 82.75 L 601.74 82.32 Q 599.74 82.32 599.74 80.32 L 600.43 73.38 Q 600.43 71.38 602.43 71.38 Z"/><path class="water0" d="M 613.20 -0.80 L 619.67 -0.58 Q 621.67 -0.58 621.67 1.42 L 622.36 8.38 Q 622.36 10.38 620.36 10.38 L 613.47 9.75 Q 611.47 9.75 611.47 7.75 L 611.20 1.20 Q 611.20 -0.80 613.20 -0.80 Z"/><path class="water0" d="M 613.47 11.75 L 620.36 12.38 Q 622.36 12.38 622.36 14.38 L 622.78 20.78 Q 622.78 22.78 620.78 22.78 L 614.13 22.67 Q 612.13 22.67 612.13 20.67 L 611.47 13.75 Q 611.47 11.75 613.47 11.75 Z"/><path class="water0" d="M 614.13 24.67 L 620.78 24.78 Q 622.78 24.78 622.78 26.78 L 622.61 32.04 Q 622.61 34.04 620.61 34.04 L 614.70 34.60 Q 612.70 34.60 612.70 32.60 L 612.13 26.67 Q 612.13 24.67 614.13 24.67 Z"/><path class="water0" d="M 614.70 36.60 L 620.61 36.04 Q 622.61 36.04 622.61 38.04 L 621.98 43.24 Q 621.98 45.24 619.98 45.24 L 614.74 45.65 Q 612.74 45.65 612.74 43.65 L 612.70 38.60 Q 612.70 36.60 614.70 36.60 Z"/><path class="water0" d="M 614.74 47.65 L 619.98 47.24 Q 621.98 47.24 621.98 49.24 L 621.36 55.55 Q 621.36 57.55 619.36 57.55 L 614.22 57.21 Q 612.22 57.21 612.22 55.21 L 612.74 49.65 Q 612.74 47.65 614.74 47.65 Z"/><path class="water0" d="M 614.22 59.21 L 619.36 59.55 Q 621.36 59.55 621.36 61.55 L 621.23 68.52 Q 621.23 70.52 619.23 70.52 L 613.53 69.92 Q 611.53 69.92 611.53 67.92 L 612.22 61.21 Q 612.22 59.21 614.22 59.21 Z"/><path class="water0" d="M 613.53 71.92 L 619.23 72.52 Q 621.23 72.52 621.23 74.52 L 621.68 80.73 Q 621.68 82.73 619.68 82.73 L 613.20 82.75 Q 611.20 82.75 611.20 80.75 L 611.53 73.92 Q 611.53 71.92 613.53 71.92 Z"/><path class="water0" d="M 625.67 -0.58 L 632.56 -0.01 Q 634.56 -0.01 634.56 1.99 L 634.80 8.77 Q 634.80 10.77 632.80 10.77 L 626.36 10.38 Q 624.36 10.38 624.36 8.38 L 623.67 1.42 Q 623.67 -0.58 625.67 -0.58 Z"/><path class="water0" d="M 626.36 12.38 L 632.80 12.77 Q 634.80 12.77 634.80 14.77 L 634.43 20.42 Q 634.43 22.42 632.43 22.42 L 626.78 22.78 Q 624.78 22.78 624.78 20.78 L 624.36 14.38 Q 624.36 12.38 626.36 12.38 Z"/><path class="water0" d="M 626.78 24.78 L 632.43 24.42 Q 634.43 24.42 634.43 26.42 L 633.74 31.46 Q 633.74 33.46 631.74 33.46 L 626.61 34.04 Q 624.61 34.04 624.61 32.04 L 624.78 26.78 Q 624.78 24.78 626.78 24.78 Z"/><path class="water0" d="M 626.61 36.04 L 631.74 35.46 Q 633.74 35.46 633.74 37.46 L 633.25 43.29 Q 633.25 45.29 631.25 45.29 L 625.98 45.24 Q 623.98 45.24 623.98 43.24 L 624.61 38.04 Q 624.61 36.04 626.61 36.04 Z"/><path class="water0" d="M 625.98 47.24 L 631.25 47.29 Q 633.25 47.29 633.25 49.29 L 633.32 56.16 Q 633.32 58.16 631.32 58.16 L 625.36 57.55 Q 623.36 57.55 623.36 55.55 L 623.98 49.24 Q 623.98 47.24 625.98 47.24 Z"/><path class="water0" d="M 625.36 59.55 L 631.32 60.16 Q 633.32 60.16 633.32 62.16 L 633.91 68.80 Q 633.91 70.80 631.91 70.80 L 625.23 70.52 Q 623.23 70.52 623.23 68.52 L 623.36 61.55 Q 623.36 59.55 625.36 59.55 Z"/><path class="water0" d="M 625.23 72.52 L 631.91 72.80 Q 633.91 72.80 633.91 74.80 L 634.57 80.26 Q 634.57 82.26 632.57 82.26 L 625.68 82.73 Q 623.68 82.73 623.68 80.73 L 623.23 74.52 Q 623.23 72.52 625.23 72.52 Z"/><path class="water0" d="M 638.56 -0.01 L 644.74 0.57 Q 646.74 0.57 646.74 2.57 L 646.22 8.70 Q 646.22 10.70 644.22 10.70 L 638.80 10.77 Q 636.80 10.77 636.80 8.77 L 636.56 1.99 Q 636.56 -0.01 638.56 -0.01 Z"/><path class="water0" d="M 638.80 12.77 L 644.22 12.70 Q 646.22 12.70 646.22 14.70 L 645.53 19.80 Q 645.53 21.80 643.53 21.80 L 638.43 22.42 Q 636.43 22.42 636.43 20.42 L 636.80 14.77 Q 636.80 12.77 638.80 12.77 Z"/><path class="water0" d="M 638.43 24.42 L 643.53 23.80 Q 645.53 23.80 645.53 25.80 L 645.20 31.20 Q 645.20 33.20 643.20 33.20 L 637.74 33.46 Q 635.74 33.46 635.74 31.46 L 636.43 26.42 Q 636.43 24.42 638.43 24.42 Z"/><path class="water0" d="M 637.74 35.46 L 643.20 35.20 Q 645.20 35.20 645.20 37.20 L 645.48 43.77 Q 645.48 45.77 643.48 45.77 L 637.25 45.29 Q 635.25 45.29 635.25 43.29 L 635.74 37.46 Q 635.74 35.46 637.74 35.46 Z"/><path class="water0" d="M 637.25 47.29 L 643.48 47.77 Q 645.48 47.77 645.48 49.77 L 646.15 56.68 Q 646.15 58.68 644.15 58.68 L 637.32 58.16 Q 635.32 58.16 635.32 56.16 L 635.25 49.29 Q 635.25 47.29 637.25 47.29 Z"/><path class="water0" d="M 637.32 60.16 L 644.15 60.68 Q 646.15 60.68 646.15 62.68 L 646.71 68.59 Q 646.71 70.59 644.71 70.59 L 637.91 70.80 Q 635.91 70.80 635.91 68.80 L 635.32 62.16 Q 635.32 60.16 637.32 60.16 Z"/><path class="water0" d="M 637.91 72.80 L 644.71 72.59 Q 646.71 72.59 646.71 74.59 L 646.73 79.64 Q 646.73 81.64 644.73 81.64 L 638.57 82.26 Q 636.57 82.26 636.57 80.26 L 635.91 74.80 Q 635.91 72.80 637.91 72.80 Z"/>

<g class="duck">
  <!-- Smooth rubber duck illustration (facing right) -->

  <!-- Body (using path for flat bottom) -->
  <path d="M 1 28 Q 1 20, 15 20 Q 29 20, 29 28 Q 29 36, 15 36 Q 1 36, 1 28 Z" fill="#ffdd00"/>

  <!-- Head -->
  <circle cx="22" cy="18" r="9" fill="#ffdd00"/>

  <!-- Beak -->
  <ellipse cx="29" cy="18" rx="4" ry="3" fill="#ff9500"/>

  <!-- Eye -->
  <circle cx="25" cy="16" r="1.5" fill="#000000"/>

  <!-- Highlight on eye -->
  <circle cx="25.5" cy="15.5" r="0.5" fill="#ffffff"/>

  <!-- Shadow under body -->
  <ellipse cx="15" cy="36" rx="12" ry="2" fill="#000000" opacity="0.15"/>

  <!-- Shading on body -->
  <ellipse cx="18" cy="30" rx="6" ry="4" fill="#ffcc00" opacity="0.3"/>

  <!-- Highlight on head -->
  <ellipse cx="20" cy="15" rx="3" ry="2" fill="#ffff99" opacity="0.6"/>

  <!-- Wing -->
  <ellipse cx="10" cy="27" rx="3" ry="5" fill="#ffcc00" opacity="0.5"/>
</g>

<!-- Pink and white striped floatie ring -->
<g style="animation: swim 30s ease-in-out infinite;">
  <!-- Floatie ring with stripes using clipPath -->
  <defs>
    <clipPath id="ringClip">
      <path d="M -30 30 A 16 13 0 0 1 -30 56 A 16 13 0 0 1 -30 30 M -30 37 A 7 5.5 0 0 0 -30 49 A 7 5.5 0 0 0 -30 37 Z" fill-rule="evenodd"/>
    </clipPath>
  </defs>

  <!-- Background (full donut) -->
  <ellipse cx="-30" cy="43" rx="16" ry="13" fill="#ff69b4" clip-path="url(#ringClip)"/>

  <!-- White stripes -->
  <g clip-path="url(#ringClip)">
    <rect x="-46" y="30" width="6" height="26" fill="#ffffff"/>
    <rect x="-36" y="30" width="6" height="26" fill="#ffffff"/>
    <rect x="-26" y="30" width="6" height="26" fill="#ffffff"/>
    <rect x="-16" y="30" width="6" height="26" fill="#ffffff"/>
  </g>

  <!-- Inner shadow -->
  <ellipse cx="-30" cy="44" rx="7" ry="5.5" fill="#000000" opacity="0.15" clip-path="url(#ringClip)"/>

  <!-- Inner hole (transparent) -->
  <ellipse cx="-30" cy="43" rx="7" ry="5.5" fill="none"/>

  <!-- Outer shadow on ring -->
  <ellipse cx="-28" cy="49" rx="12" ry="4" fill="#ff1493" opacity="0.3" clip-path="url(#ringClip)"/>

  <!-- Highlight on top -->
  <ellipse cx="-33" cy="36" rx="5" ry="2.5" fill="#ffffff" opacity="0.6" clip-path="url(#ringClip)"/>

  <!-- Shadow under floatie -->
  <ellipse cx="-30" cy="54" rx="13" ry="2.5" fill="#000000" opacity="0.1"/>
</g>

</svg>
