
<svg width="720" height="84" xmlns="http://www.w3.org/2000/svg">

<style>
.water0 { fill:none }
.water1 { fill:#4dd2ff }
.water2 { fill:#1aa3ff }
.water3 { fill:#0088ff }
.water4 { fill:#0066cc }
.duck {
  animation: swim 15s ease-in-out infinite;
}

@keyframes swim {
  0% { transform: translate(0px, 0px); }
  10% { transform: translate(80px, -3px); }
  20% { transform: translate(150px, 2px); }
  30% { transform: translate(230px, -4px); }
  40% { transform: translate(310px, 1px); }
  50% { transform: translate(390px, -2px); }
  60% { transform: translate(470px, 3px); }
  70% { transform: translate(540px, -1px); }
  80% { transform: translate(600px, 2px); }
  90% { transform: translate(640px, -3px); }
  100% { transform: translate(680px, 0px); }
}
</style>

<rect class="water0" x="0" y="0" width="10" height="10" rx="2"/><rect class="water0" x="0" y="12" width="10" height="10" rx="2"/><rect class="water0" x="0" y="24" width="10" height="10" rx="2"/><rect class="water0" x="0" y="36" width="10" height="10" rx="2"/><rect class="water0" x="0" y="48" width="10" height="10" rx="2"/><rect class="water0" x="0" y="60" width="10" height="10" rx="2"/><rect class="water0" x="0" y="72" width="10" height="10" rx="2"/><rect class="water0" x="12" y="0" width="10" height="10" rx="2"/><rect class="water1" x="12" y="12" width="10" height="10" rx="2"/><rect class="water1" x="12" y="24" width="10" height="10" rx="2"/><rect class="water1" x="12" y="36" width="10" height="10" rx="2"/><rect class="water1" x="12" y="48" width="10" height="10" rx="2"/><rect class="water1" x="12" y="60" width="10" height="10" rx="2"/><rect class="water0" x="12" y="72" width="10" height="10" rx="2"/><rect class="water1" x="24" y="0" width="10" height="10" rx="2"/><rect class="water1" x="24" y="12" width="10" height="10" rx="2"/><rect class="water2" x="24" y="24" width="10" height="10" rx="2"/><rect class="water1" x="24" y="36" width="10" height="10" rx="2"/><rect class="water1" x="24" y="48" width="10" height="10" rx="2"/><rect class="water1" x="24" y="60" width="10" height="10" rx="2"/><rect class="water1" x="24" y="72" width="10" height="10" rx="2"/><rect class="water1" x="36" y="0" width="10" height="10" rx="2"/><rect class="water1" x="36" y="12" width="10" height="10" rx="2"/><rect class="water1" x="36" y="24" width="10" height="10" rx="2"/><rect class="water0" x="36" y="36" width="10" height="10" rx="2"/><rect class="water0" x="36" y="48" width="10" height="10" rx="2"/><rect class="water0" x="36" y="60" width="10" height="10" rx="2"/><rect class="water0" x="36" y="72" width="10" height="10" rx="2"/><rect class="water1" x="48" y="0" width="10" height="10" rx="2"/><rect class="water1" x="48" y="12" width="10" height="10" rx="2"/><rect class="water1" x="48" y="24" width="10" height="10" rx="2"/><rect class="water1" x="48" y="36" width="10" height="10" rx="2"/><rect class="water1" x="48" y="48" width="10" height="10" rx="2"/><rect class="water2" x="48" y="60" width="10" height="10" rx="2"/><rect class="water0" x="48" y="72" width="10" height="10" rx="2"/><rect class="water0" x="60" y="0" width="10" height="10" rx="2"/><rect class="water0" x="60" y="12" width="10" height="10" rx="2"/><rect class="water0" x="60" y="24" width="10" height="10" rx="2"/><rect class="water1" x="60" y="36" width="10" height="10" rx="2"/><rect class="water1" x="60" y="48" width="10" height="10" rx="2"/><rect class="water1" x="60" y="60" width="10" height="10" rx="2"/><rect class="water0" x="60" y="72" width="10" height="10" rx="2"/><rect class="water0" x="72" y="0" width="10" height="10" rx="2"/><rect class="water0" x="72" y="12" width="10" height="10" rx="2"/><rect class="water1" x="72" y="24" width="10" height="10" rx="2"/><rect class="water2" x="72" y="36" width="10" height="10" rx="2"/><rect class="water2" x="72" y="48" width="10" height="10" rx="2"/><rect class="water1" x="72" y="60" width="10" height="10" rx="2"/><rect class="water2" x="72" y="72" width="10" height="10" rx="2"/><rect class="water1" x="84" y="0" width="10" height="10" rx="2"/><rect class="water1" x="84" y="12" width="10" height="10" rx="2"/><rect class="water1" x="84" y="24" width="10" height="10" rx="2"/><rect class="water1" x="84" y="36" width="10" height="10" rx="2"/><rect class="water1" x="84" y="48" width="10" height="10" rx="2"/><rect class="water1" x="84" y="60" width="10" height="10" rx="2"/><rect class="water1" x="84" y="72" width="10" height="10" rx="2"/><rect class="water0" x="96" y="0" width="10" height="10" rx="2"/><rect class="water1" x="96" y="12" width="10" height="10" rx="2"/><rect class="water0" x="96" y="24" width="10" height="10" rx="2"/><rect class="water1" x="96" y="36" width="10" height="10" rx="2"/><rect class="water1" x="96" y="48" width="10" height="10" rx="2"/><rect class="water1" x="96" y="60" width="10" height="10" rx="2"/><rect class="water1" x="96" y="72" width="10" height="10" rx="2"/><rect class="water0" x="108" y="0" width="10" height="10" rx="2"/><rect class="water2" x="108" y="12" width="10" height="10" rx="2"/><rect class="water1" x="108" y="24" width="10" height="10" rx="2"/><rect class="water2" x="108" y="36" width="10" height="10" rx="2"/><rect class="water1" x="108" y="48" width="10" height="10" rx="2"/><rect class="water1" x="108" y="60" width="10" height="10" rx="2"/><rect class="water0" x="108" y="72" width="10" height="10" rx="2"/><rect class="water1" x="120" y="0" width="10" height="10" rx="2"/><rect class="water1" x="120" y="12" width="10" height="10" rx="2"/><rect class="water1" x="120" y="24" width="10" height="10" rx="2"/><rect class="water1" x="120" y="36" width="10" height="10" rx="2"/><rect class="water1" x="120" y="48" width="10" height="10" rx="2"/><rect class="water1" x="120" y="60" width="10" height="10" rx="2"/><rect class="water0" x="120" y="72" width="10" height="10" rx="2"/><rect class="water1" x="132" y="0" width="10" height="10" rx="2"/><rect class="water1" x="132" y="12" width="10" height="10" rx="2"/><rect class="water1" x="132" y="24" width="10" height="10" rx="2"/><rect class="water1" x="132" y="36" width="10" height="10" rx="2"/><rect class="water1" x="132" y="48" width="10" height="10" rx="2"/><rect class="water1" x="132" y="60" width="10" height="10" rx="2"/><rect class="water0" x="132" y="72" width="10" height="10" rx="2"/><rect class="water0" x="144" y="0" width="10" height="10" rx="2"/><rect class="water1" x="144" y="12" width="10" height="10" rx="2"/><rect class="water1" x="144" y="24" width="10" height="10" rx="2"/><rect class="water1" x="144" y="36" width="10" height="10" rx="2"/><rect class="water1" x="144" y="48" width="10" height="10" rx="2"/><rect class="water1" x="144" y="60" width="10" height="10" rx="2"/><rect class="water0" x="144" y="72" width="10" height="10" rx="2"/><rect class="water0" x="156" y="0" width="10" height="10" rx="2"/><rect class="water1" x="156" y="12" width="10" height="10" rx="2"/><rect class="water1" x="156" y="24" width="10" height="10" rx="2"/><rect class="water1" x="156" y="36" width="10" height="10" rx="2"/><rect class="water1" x="156" y="48" width="10" height="10" rx="2"/><rect class="water2" x="156" y="60" width="10" height="10" rx="2"/><rect class="water0" x="156" y="72" width="10" height="10" rx="2"/><rect class="water2" x="168" y="0" width="10" height="10" rx="2"/><rect class="water2" x="168" y="12" width="10" height="10" rx="2"/><rect class="water2" x="168" y="24" width="10" height="10" rx="2"/><rect class="water1" x="168" y="36" width="10" height="10" rx="2"/><rect class="water1" x="168" y="48" width="10" height="10" rx="2"/><rect class="water1" x="168" y="60" width="10" height="10" rx="2"/><rect class="water0" x="168" y="72" width="10" height="10" rx="2"/><rect class="water1" x="180" y="0" width="10" height="10" rx="2"/><rect class="water1" x="180" y="12" width="10" height="10" rx="2"/><rect class="water2" x="180" y="24" width="10" height="10" rx="2"/><rect class="water1" x="180" y="36" width="10" height="10" rx="2"/><rect class="water2" x="180" y="48" width="10" height="10" rx="2"/><rect class="water0" x="180" y="60" width="10" height="10" rx="2"/><rect class="water0" x="180" y="72" width="10" height="10" rx="2"/><rect class="water0" x="192" y="0" width="10" height="10" rx="2"/><rect class="water1" x="192" y="12" width="10" height="10" rx="2"/><rect class="water1" x="192" y="24" width="10" height="10" rx="2"/><rect class="water1" x="192" y="36" width="10" height="10" rx="2"/><rect class="water1" x="192" y="48" width="10" height="10" rx="2"/><rect class="water1" x="192" y="60" width="10" height="10" rx="2"/><rect class="water0" x="192" y="72" width="10" height="10" rx="2"/><rect class="water0" x="204" y="0" width="10" height="10" rx="2"/><rect class="water0" x="204" y="12" width="10" height="10" rx="2"/><rect class="water1" x="204" y="24" width="10" height="10" rx="2"/><rect class="water2" x="204" y="36" width="10" height="10" rx="2"/><rect class="water1" x="204" y="48" width="10" height="10" rx="2"/><rect class="water2" x="204" y="60" width="10" height="10" rx="2"/><rect class="water0" x="204" y="72" width="10" height="10" rx="2"/><rect class="water0" x="216" y="0" width="10" height="10" rx="2"/><rect class="water1" x="216" y="12" width="10" height="10" rx="2"/><rect class="water2" x="216" y="24" width="10" height="10" rx="2"/><rect class="water1" x="216" y="36" width="10" height="10" rx="2"/><rect class="water1" x="216" y="48" width="10" height="10" rx="2"/><rect class="water1" x="216" y="60" width="10" height="10" rx="2"/><rect class="water0" x="216" y="72" width="10" height="10" rx="2"/><rect class="water0" x="228" y="0" width="10" height="10" rx="2"/><rect class="water1" x="228" y="12" width="10" height="10" rx="2"/><rect class="water1" x="228" y="24" width="10" height="10" rx="2"/><rect class="water1" x="228" y="36" width="10" height="10" rx="2"/><rect class="water1" x="228" y="48" width="10" height="10" rx="2"/><rect class="water0" x="228" y="60" width="10" height="10" rx="2"/><rect class="water0" x="228" y="72" width="10" height="10" rx="2"/><rect class="water0" x="240" y="0" width="10" height="10" rx="2"/><rect class="water0" x="240" y="12" width="10" height="10" rx="2"/><rect class="water1" x="240" y="24" width="10" height="10" rx="2"/><rect class="water1" x="240" y="36" width="10" height="10" rx="2"/><rect class="water1" x="240" y="48" width="10" height="10" rx="2"/><rect class="water1" x="240" y="60" width="10" height="10" rx="2"/><rect class="water0" x="240" y="72" width="10" height="10" rx="2"/><rect class="water0" x="252" y="0" width="10" height="10" rx="2"/><rect class="water1" x="252" y="12" width="10" height="10" rx="2"/><rect class="water1" x="252" y="24" width="10" height="10" rx="2"/><rect class="water0" x="252" y="36" width="10" height="10" rx="2"/><rect class="water0" x="252" y="48" width="10" height="10" rx="2"/><rect class="water0" x="252" y="60" width="10" height="10" rx="2"/><rect class="water0" x="252" y="72" width="10" height="10" rx="2"/><rect class="water0" x="264" y="0" width="10" height="10" rx="2"/><rect class="water0" x="264" y="12" width="10" height="10" rx="2"/><rect class="water0" x="264" y="24" width="10" height="10" rx="2"/><rect class="water0" x="264" y="36" width="10" height="10" rx="2"/><rect class="water0" x="264" y="48" width="10" height="10" rx="2"/><rect class="water0" x="264" y="60" width="10" height="10" rx="2"/><rect class="water0" x="264" y="72" width="10" height="10" rx="2"/><rect class="water0" x="276" y="0" width="10" height="10" rx="2"/><rect class="water0" x="276" y="12" width="10" height="10" rx="2"/><rect class="water0" x="276" y="24" width="10" height="10" rx="2"/><rect class="water0" x="276" y="36" width="10" height="10" rx="2"/><rect class="water0" x="276" y="48" width="10" height="10" rx="2"/><rect class="water0" x="276" y="60" width="10" height="10" rx="2"/><rect class="water0" x="276" y="72" width="10" height="10" rx="2"/><rect class="water0" x="288" y="0" width="10" height="10" rx="2"/><rect class="water0" x="288" y="12" width="10" height="10" rx="2"/><rect class="water0" x="288" y="24" width="10" height="10" rx="2"/><rect class="water0" x="288" y="36" width="10" height="10" rx="2"/><rect class="water0" x="288" y="48" width="10" height="10" rx="2"/><rect class="water0" x="288" y="60" width="10" height="10" rx="2"/><rect class="water0" x="288" y="72" width="10" height="10" rx="2"/><rect class="water0" x="300" y="0" width="10" height="10" rx="2"/><rect class="water0" x="300" y="12" width="10" height="10" rx="2"/><rect class="water0" x="300" y="24" width="10" height="10" rx="2"/><rect class="water0" x="300" y="36" width="10" height="10" rx="2"/><rect class="water0" x="300" y="48" width="10" height="10" rx="2"/><rect class="water0" x="300" y="60" width="10" height="10" rx="2"/><rect class="water0" x="300" y="72" width="10" height="10" rx="2"/><rect class="water0" x="312" y="0" width="10" height="10" rx="2"/><rect class="water0" x="312" y="12" width="10" height="10" rx="2"/><rect class="water0" x="312" y="24" width="10" height="10" rx="2"/><rect class="water1" x="312" y="36" width="10" height="10" rx="2"/><rect class="water0" x="312" y="48" width="10" height="10" rx="2"/><rect class="water0" x="312" y="60" width="10" height="10" rx="2"/><rect class="water0" x="312" y="72" width="10" height="10" rx="2"/><rect class="water0" x="324" y="0" width="10" height="10" rx="2"/><rect class="water0" x="324" y="12" width="10" height="10" rx="2"/><rect class="water0" x="324" y="24" width="10" height="10" rx="2"/><rect class="water0" x="324" y="36" width="10" height="10" rx="2"/><rect class="water0" x="324" y="48" width="10" height="10" rx="2"/><rect class="water0" x="324" y="60" width="10" height="10" rx="2"/><rect class="water0" x="324" y="72" width="10" height="10" rx="2"/><rect class="water0" x="336" y="0" width="10" height="10" rx="2"/><rect class="water0" x="336" y="12" width="10" height="10" rx="2"/><rect class="water0" x="336" y="24" width="10" height="10" rx="2"/><rect class="water0" x="336" y="36" width="10" height="10" rx="2"/><rect class="water0" x="336" y="48" width="10" height="10" rx="2"/><rect class="water0" x="336" y="60" width="10" height="10" rx="2"/><rect class="water0" x="336" y="72" width="10" height="10" rx="2"/><rect class="water0" x="348" y="0" width="10" height="10" rx="2"/><rect class="water0" x="348" y="12" width="10" height="10" rx="2"/><rect class="water0" x="348" y="24" width="10" height="10" rx="2"/><rect class="water0" x="348" y="36" width="10" height="10" rx="2"/><rect class="water0" x="348" y="48" width="10" height="10" rx="2"/><rect class="water0" x="348" y="60" width="10" height="10" rx="2"/><rect class="water0" x="348" y="72" width="10" height="10" rx="2"/><rect class="water0" x="360" y="0" width="10" height="10" rx="2"/><rect class="water0" x="360" y="12" width="10" height="10" rx="2"/><rect class="water0" x="360" y="24" width="10" height="10" rx="2"/><rect class="water0" x="360" y="36" width="10" height="10" rx="2"/><rect class="water0" x="360" y="48" width="10" height="10" rx="2"/><rect class="water0" x="360" y="60" width="10" height="10" rx="2"/><rect class="water0" x="360" y="72" width="10" height="10" rx="2"/><rect class="water0" x="372" y="0" width="10" height="10" rx="2"/><rect class="water0" x="372" y="12" width="10" height="10" rx="2"/><rect class="water0" x="372" y="24" width="10" height="10" rx="2"/><rect class="water0" x="372" y="36" width="10" height="10" rx="2"/><rect class="water0" x="372" y="48" width="10" height="10" rx="2"/><rect class="water0" x="372" y="60" width="10" height="10" rx="2"/><rect class="water0" x="372" y="72" width="10" height="10" rx="2"/><rect class="water0" x="384" y="0" width="10" height="10" rx="2"/><rect class="water0" x="384" y="12" width="10" height="10" rx="2"/><rect class="water0" x="384" y="24" width="10" height="10" rx="2"/><rect class="water0" x="384" y="36" width="10" height="10" rx="2"/><rect class="water0" x="384" y="48" width="10" height="10" rx="2"/><rect class="water0" x="384" y="60" width="10" height="10" rx="2"/><rect class="water0" x="384" y="72" width="10" height="10" rx="2"/><rect class="water0" x="396" y="0" width="10" height="10" rx="2"/><rect class="water0" x="396" y="12" width="10" height="10" rx="2"/><rect class="water0" x="396" y="24" width="10" height="10" rx="2"/><rect class="water0" x="396" y="36" width="10" height="10" rx="2"/><rect class="water0" x="396" y="48" width="10" height="10" rx="2"/><rect class="water0" x="396" y="60" width="10" height="10" rx="2"/><rect class="water0" x="396" y="72" width="10" height="10" rx="2"/><rect class="water0" x="408" y="0" width="10" height="10" rx="2"/><rect class="water0" x="408" y="12" width="10" height="10" rx="2"/><rect class="water0" x="408" y="24" width="10" height="10" rx="2"/><rect class="water1" x="408" y="36" width="10" height="10" rx="2"/><rect class="water1" x="408" y="48" width="10" height="10" rx="2"/><rect class="water1" x="408" y="60" width="10" height="10" rx="2"/><rect class="water0" x="408" y="72" width="10" height="10" rx="2"/><rect class="water0" x="420" y="0" width="10" height="10" rx="2"/><rect class="water0" x="420" y="12" width="10" height="10" rx="2"/><rect class="water1" x="420" y="24" width="10" height="10" rx="2"/><rect class="water1" x="420" y="36" width="10" height="10" rx="2"/><rect class="water1" x="420" y="48" width="10" height="10" rx="2"/><rect class="water1" x="420" y="60" width="10" height="10" rx="2"/><rect class="water0" x="420" y="72" width="10" height="10" rx="2"/><rect class="water0" x="432" y="0" width="10" height="10" rx="2"/><rect class="water1" x="432" y="12" width="10" height="10" rx="2"/><rect class="water2" x="432" y="24" width="10" height="10" rx="2"/><rect class="water2" x="432" y="36" width="10" height="10" rx="2"/><rect class="water2" x="432" y="48" width="10" height="10" rx="2"/><rect class="water2" x="432" y="60" width="10" height="10" rx="2"/><rect class="water0" x="432" y="72" width="10" height="10" rx="2"/><rect class="water0" x="444" y="0" width="10" height="10" rx="2"/><rect class="water2" x="444" y="12" width="10" height="10" rx="2"/><rect class="water1" x="444" y="24" width="10" height="10" rx="2"/><rect class="water1" x="444" y="36" width="10" height="10" rx="2"/><rect class="water1" x="444" y="48" width="10" height="10" rx="2"/><rect class="water1" x="444" y="60" width="10" height="10" rx="2"/><rect class="water0" x="444" y="72" width="10" height="10" rx="2"/><rect class="water0" x="456" y="0" width="10" height="10" rx="2"/><rect class="water1" x="456" y="12" width="10" height="10" rx="2"/><rect class="water1" x="456" y="24" width="10" height="10" rx="2"/><rect class="water1" x="456" y="36" width="10" height="10" rx="2"/><rect class="water1" x="456" y="48" width="10" height="10" rx="2"/><rect class="water1" x="456" y="60" width="10" height="10" rx="2"/><rect class="water0" x="456" y="72" width="10" height="10" rx="2"/><rect class="water0" x="468" y="0" width="10" height="10" rx="2"/><rect class="water1" x="468" y="12" width="10" height="10" rx="2"/><rect class="water1" x="468" y="24" width="10" height="10" rx="2"/><rect class="water1" x="468" y="36" width="10" height="10" rx="2"/><rect class="water1" x="468" y="48" width="10" height="10" rx="2"/><rect class="water1" x="468" y="60" width="10" height="10" rx="2"/><rect class="water0" x="468" y="72" width="10" height="10" rx="2"/><rect class="water0" x="480" y="0" width="10" height="10" rx="2"/><rect class="water0" x="480" y="12" width="10" height="10" rx="2"/><rect class="water0" x="480" y="24" width="10" height="10" rx="2"/><rect class="water0" x="480" y="36" width="10" height="10" rx="2"/><rect class="water0" x="480" y="48" width="10" height="10" rx="2"/><rect class="water0" x="480" y="60" width="10" height="10" rx="2"/><rect class="water0" x="480" y="72" width="10" height="10" rx="2"/><rect class="water0" x="492" y="0" width="10" height="10" rx="2"/><rect class="water1" x="492" y="12" width="10" height="10" rx="2"/><rect class="water2" x="492" y="24" width="10" height="10" rx="2"/><rect class="water1" x="492" y="36" width="10" height="10" rx="2"/><rect class="water2" x="492" y="48" width="10" height="10" rx="2"/><rect class="water1" x="492" y="60" width="10" height="10" rx="2"/><rect class="water0" x="492" y="72" width="10" height="10" rx="2"/><rect class="water0" x="504" y="0" width="10" height="10" rx="2"/><rect class="water0" x="504" y="12" width="10" height="10" rx="2"/><rect class="water1" x="504" y="24" width="10" height="10" rx="2"/><rect class="water1" x="504" y="36" width="10" height="10" rx="2"/><rect class="water2" x="504" y="48" width="10" height="10" rx="2"/><rect class="water1" x="504" y="60" width="10" height="10" rx="2"/><rect class="water0" x="504" y="72" width="10" height="10" rx="2"/><rect class="water0" x="516" y="0" width="10" height="10" rx="2"/><rect class="water2" x="516" y="12" width="10" height="10" rx="2"/><rect class="water1" x="516" y="24" width="10" height="10" rx="2"/><rect class="water1" x="516" y="36" width="10" height="10" rx="2"/><rect class="water2" x="516" y="48" width="10" height="10" rx="2"/><rect class="water1" x="516" y="60" width="10" height="10" rx="2"/><rect class="water0" x="516" y="72" width="10" height="10" rx="2"/><rect class="water0" x="528" y="0" width="10" height="10" rx="2"/><rect class="water1" x="528" y="12" width="10" height="10" rx="2"/><rect class="water1" x="528" y="24" width="10" height="10" rx="2"/><rect class="water1" x="528" y="36" width="10" height="10" rx="2"/><rect class="water1" x="528" y="48" width="10" height="10" rx="2"/><rect class="water1" x="528" y="60" width="10" height="10" rx="2"/><rect class="water0" x="528" y="72" width="10" height="10" rx="2"/><rect class="water0" x="540" y="0" width="10" height="10" rx="2"/><rect class="water0" x="540" y="12" width="10" height="10" rx="2"/><rect class="water0" x="540" y="24" width="10" height="10" rx="2"/><rect class="water0" x="540" y="36" width="10" height="10" rx="2"/><rect class="water0" x="540" y="48" width="10" height="10" rx="2"/><rect class="water1" x="540" y="60" width="10" height="10" rx="2"/><rect class="water0" x="540" y="72" width="10" height="10" rx="2"/><rect class="water1" x="552" y="0" width="10" height="10" rx="2"/><rect class="water1" x="552" y="12" width="10" height="10" rx="2"/><rect class="water0" x="552" y="24" width="10" height="10" rx="2"/><rect class="water0" x="552" y="36" width="10" height="10" rx="2"/><rect class="water0" x="552" y="48" width="10" height="10" rx="2"/><rect class="water0" x="552" y="60" width="10" height="10" rx="2"/><rect class="water0" x="552" y="72" width="10" height="10" rx="2"/><rect class="water0" x="564" y="0" width="10" height="10" rx="2"/><rect class="water4" x="564" y="12" width="10" height="10" rx="2"/><rect class="water0" x="564" y="24" width="10" height="10" rx="2"/><rect class="water0" x="564" y="36" width="10" height="10" rx="2"/><rect class="water4" x="564" y="48" width="10" height="10" rx="2"/><rect class="water4" x="564" y="60" width="10" height="10" rx="2"/><rect class="water1" x="564" y="72" width="10" height="10" rx="2"/><rect class="water0" x="576" y="0" width="10" height="10" rx="2"/><rect class="water1" x="576" y="12" width="10" height="10" rx="2"/><rect class="water3" x="576" y="24" width="10" height="10" rx="2"/><rect class="water4" x="576" y="36" width="10" height="10" rx="2"/><rect class="water2" x="576" y="48" width="10" height="10" rx="2"/><rect class="water3" x="576" y="60" width="10" height="10" rx="2"/><rect class="water1" x="576" y="72" width="10" height="10" rx="2"/><rect class="water0" x="588" y="0" width="10" height="10" rx="2"/><rect class="water0" x="588" y="12" width="10" height="10" rx="2"/><rect class="water1" x="588" y="24" width="10" height="10" rx="2"/><rect class="water1" x="588" y="36" width="10" height="10" rx="2"/><rect class="water0" x="588" y="48" width="10" height="10" rx="2"/><rect class="water3" x="588" y="60" width="10" height="10" rx="2"/><rect class="water1" x="588" y="72" width="10" height="10" rx="2"/>

<g class="duck">
  <!-- Smooth rubber duck illustration (facing right) -->

  <!-- Body (using path for flat bottom) -->
  <path d="M 1 28 Q 1 20, 15 20 Q 29 20, 29 28 Q 29 36, 15 36 Q 1 36, 1 28 Z" fill="#ffdd00"/>

  <!-- Head -->
  <circle cx="22" cy="18" r="9" fill="#ffdd00"/>

  <!-- Beak -->
  <ellipse cx="29" cy="18" rx="4" ry="3" fill="#ff9500"/>

  <!-- Eye -->
  <circle cx="25" cy="16" r="1.5" fill="#000000"/>

  <!-- Highlight on eye -->
  <circle cx="25.5" cy="15.5" r="0.5" fill="#ffffff"/>

  <!-- Shadow under body -->
  <ellipse cx="15" cy="36" rx="12" ry="2" fill="#000000" opacity="0.15"/>

  <!-- Shading on body -->
  <ellipse cx="18" cy="30" rx="6" ry="4" fill="#ffcc00" opacity="0.3"/>

  <!-- Highlight on head -->
  <ellipse cx="20" cy="15" rx="3" ry="2" fill="#ffff99" opacity="0.6"/>

  <!-- Wing -->
  <ellipse cx="10" cy="27" rx="3" ry="5" fill="#ffcc00" opacity="0.5"/>
</g>

</svg>
